<svg id="Layer_1" data-name="Layer 1" xmlns="http://www.w3.org/2000/svg" viewBox="0 0 97.25 96.12"><defs><style>.cls-1{opacity:0.24;}.cls-2{fill:#2c3742;}</style></defs><title>pattern1</title><g class="cls-1"><path class="cls-2" d="M96.83,49.38a.11.11,0,0,1-.07,0l-1-1.1a.1.1,0,0,1,0-.09.06.06,0,0,1,.06,0l1.44-.29a.07.07,0,0,1,.08,0,.08.08,0,0,1,0,.08l-.47,1.39a.09.09,0,0,1-.06.06ZM96,48.25l.78.87.37-1.1Z" transform="translate(-0.96 -2)"/><path class="cls-2" d="M31,97.31h0L30.06,97A.09.09,0,0,1,30,97a.11.11,0,0,1,0-.08l.68-.61a.08.08,0,0,1,.08,0,.09.09,0,0,1,.06.06l.18.89a.08.08,0,0,1,0,.08A.09.09,0,0,1,31,97.31Zm-.7-.41.58.19-.12-.6Z" transform="translate(-0.96 -2)"/><path class="cls-2" d="M60.47,25.5h0a.1.1,0,0,1,0-.07L60.28,24a.07.07,0,0,1,0-.07.08.08,0,0,1,.08,0l1.25.59a.1.1,0,0,1,0,.07.08.08,0,0,1,0,.08l-1.14.78Zm0-1.32.09,1.07.89-.61Z" transform="translate(-0.96 -2)"/><path class="cls-2" d="M48.34,47.88a.09.09,0,0,1-.08,0l-.57-.92a.14.14,0,0,1,0-.09.07.07,0,0,1,.07,0l1.09,0a.07.07,0,0,1,.07,0,.1.1,0,0,1,0,.09l-.52,1a.08.08,0,0,1-.07,0ZM47.92,47l.41.67.37-.69Z" transform="translate(-0.96 -2)"/><path class="cls-2" d="M80.39,85.37h0a.11.11,0,0,1-.06-.07l-.68-4.21a.14.14,0,0,1,0-.09.14.14,0,0,1,.09,0l4,1.52a.08.08,0,0,1,0,.07.07.07,0,0,1,0,.08l-3.31,2.7Zm-.57-4.16.63,3.92,3.08-2.51Z" transform="translate(-0.96 -2)"/><path class="cls-2" d="M13.41,36.89a.07.07,0,0,1-.06,0,.11.11,0,0,1,0-.08l.3-1.88a.08.08,0,0,1,.05-.07.1.1,0,0,1,.09,0l1.48,1.19a.11.11,0,0,1,0,.08.11.11,0,0,1-.06.07l-1.77.69Zm.35-1.8-.25,1.58,1.5-.58Z" transform="translate(-0.96 -2)"/><path class="cls-2" d="M38.31,62.32a.09.09,0,0,1-.06,0,.08.08,0,0,1,0-.08l.35-1.46a.09.09,0,0,1,.06-.06.1.1,0,0,1,.09,0l1.08,1a.08.08,0,0,1,0,.08s0,.05-.06.06l-1.44.42Zm.4-1.38-.28,1.17,1.15-.34Z" transform="translate(-0.96 -2)"/><path class="cls-2" d="M34,29.77h0l-1.75-.72a.08.08,0,0,1,0-.07.07.07,0,0,1,0-.08l1.49-1.16a.1.1,0,0,1,.09,0,.08.08,0,0,1,0,.07l.26,1.87s0,.07,0,.08A.07.07,0,0,1,34,29.77ZM32.39,29l1.48.6L33.65,28Z" transform="translate(-0.96 -2)"/><path class="cls-2" d="M2.82,89.51h0a.09.09,0,0,1-.06-.07l-.22-1a.08.08,0,0,1,0-.08.1.1,0,0,1,.09,0l1,.31s0,0,0,.06a.08.08,0,0,1,0,.08l-.75.69Zm-.1-1,.15.7.53-.48Z" transform="translate(-0.96 -2)"/><path class="cls-2" d="M23.2,47.47h0l-3.49-2a.08.08,0,0,1,0-.07.09.09,0,0,1,0-.08l3.43-2a.08.08,0,0,1,.09,0,.07.07,0,0,1,0,.07l.06,4a.08.08,0,0,1,0,.07Zm-3.31-2,3.23,1.8-.06-3.7Z" transform="translate(-0.96 -2)"/><path class="cls-2" d="M74.43,50.66h0a.11.11,0,0,1-.06-.07l-.16-.84a.12.12,0,0,1,0-.09.09.09,0,0,1,.09,0l.81.28a.08.08,0,0,1,0,.07.07.07,0,0,1,0,.08l-.65.56Zm0-.8.1.55.43-.36Z" transform="translate(-0.96 -2)"/><path class="cls-2" d="M15.3,13.43h0l-2.71-1a.09.09,0,0,1-.06-.06.11.11,0,0,1,0-.08l2.26-1.84a.1.1,0,0,1,.09,0,.08.08,0,0,1,0,.07l.46,2.87a.11.11,0,0,1,0,.08Zm-2.54-1.15,2.43.93-.4-2.58Z" transform="translate(-0.96 -2)"/><path class="cls-2" d="M96.78,27.69h0l-1.35-.42a.11.11,0,0,1-.06-.07.11.11,0,0,1,0-.08l1-1a.08.08,0,0,1,.08,0,.11.11,0,0,1,.06.07l.31,1.38a.07.07,0,0,1,0,.08Zm-1.19-.54,1.07.33-.24-1.09Z" transform="translate(-0.96 -2)"/><path class="cls-2" d="M81.64,92.36h0l-3.34-.22a.08.08,0,0,1-.07,0,.06.06,0,0,1,0-.08l1.86-2.79a.12.12,0,0,1,.08,0,.08.08,0,0,1,.07,0l1.48,3a.06.06,0,0,1,0,.08A.08.08,0,0,1,81.64,92.36ZM78.45,92l3,.2-1.35-2.74Z" transform="translate(-0.96 -2)"/><path class="cls-2" d="M13.2,56.37h0l-1.36-.18a.13.13,0,0,1-.07,0,.09.09,0,0,1,0-.09L12.61,55a.07.07,0,0,1,.08,0,.08.08,0,0,1,.07,0l.52,1.28a.06.06,0,0,1,0,.08A.08.08,0,0,1,13.2,56.37ZM12,56l1.07.14-.41-1Z" transform="translate(-0.96 -2)"/><path class="cls-2" d="M71.76,5.22h0a.11.11,0,0,1-.06-.07l-.35-2.21a.07.07,0,0,1,0-.08.08.08,0,0,1,.08,0l2.09.79a.11.11,0,0,1,.06.07.11.11,0,0,1,0,.08L71.81,5.2S71.78,5.22,71.76,5.22Zm-.25-2.16L71.82,5l1.5-1.23Z" transform="translate(-0.96 -2)"/><path class="cls-2" d="M92.52,11.84h0L91,11.73a.08.08,0,0,1-.07,0,.1.1,0,0,1,0-.09l.86-1.27a.06.06,0,0,1,.07,0,.08.08,0,0,1,.07,0l.68,1.38a.08.08,0,0,1,0,.08A.08.08,0,0,1,92.52,11.84Zm-1.37-.27,1.23.09-.54-1.11Z" transform="translate(-0.96 -2)"/><path class="cls-2" d="M10,93.42l-.05,0-2.6-2.2a.07.07,0,0,1,0-.08.08.08,0,0,1,.05-.07l3.21-1.15a.08.08,0,0,1,.08,0,.09.09,0,0,1,0,.09l-.6,3.34a.11.11,0,0,1-.06.07ZM7.56,91.16l2.37,2,.55-3.06Z" transform="translate(-0.96 -2)"/><path class="cls-2" d="M38,7.83h0a.12.12,0,0,1-.06-.06l-.22-.87a.08.08,0,0,1,0-.08.08.08,0,0,1,.08,0l.85.24s.06,0,.06.06a.1.1,0,0,1,0,.09l-.64.62ZM37.93,7l.14.57.42-.41Z" transform="translate(-0.96 -2)"/><path class="cls-2" d="M26.22,63.17h0l-3.15-1a.09.09,0,0,1-.06-.06A.11.11,0,0,1,23,62l2.48-2.21a.1.1,0,0,1,.09,0,.09.09,0,0,1,.06.06l.66,3.25a.08.08,0,0,1,0,.09Zm-3-1.17,2.86,1-.6-3Z" transform="translate(-0.96 -2)"/><path class="cls-2" d="M12.17,31.06l-.06,0-.66-.63a.08.08,0,0,1,0-.08.09.09,0,0,1,.06-.06l.87-.25a.06.06,0,0,1,.08,0,.08.08,0,0,1,0,.08l-.21.88a.09.09,0,0,1-.06.06Zm-.49-.67.44.42.14-.59Z" transform="translate(-0.96 -2)"/><path class="cls-2" d="M84.72,92.78h0a.08.08,0,0,1-.05-.07l-.16-4.77a.08.08,0,0,1,0-.07.08.08,0,0,1,.09,0l4.2,2.24a.08.08,0,0,1,0,.07.12.12,0,0,1,0,.08l-4,2.52Zm-.07-4.7.15,4.46,3.79-2.36Z" transform="translate(-0.96 -2)"/><path class="cls-2" d="M19.52,11.5h0a.09.09,0,0,1-.06-.06L18.65,8a.1.1,0,0,1,0-.09.1.1,0,0,1,.09,0l3.4,1a.11.11,0,0,1,.06.07.11.11,0,0,1,0,.08l-2.61,2.42S19.55,11.5,19.52,11.5Zm-.67-3.43.73,3.18L22,9Z" transform="translate(-0.96 -2)"/><path class="cls-2" d="M16.31,92.38h0a.1.1,0,0,1-.07,0l-1.07-2.09a.08.08,0,0,1,0-.09.12.12,0,0,1,.08,0l2.34.11s.06,0,.07,0a.07.07,0,0,1,0,.09l-1.27,2A.07.07,0,0,1,16.31,92.38Zm-.93-2.08.94,1.82,1.1-1.72Z" transform="translate(-0.96 -2)"/><path class="cls-2" d="M35.81,82.8a.07.07,0,0,1-.06,0,.08.08,0,0,1,0-.08l.85-3.49a.09.09,0,0,1,.06-.06.1.1,0,0,1,.09,0l2.58,2.49a.07.07,0,0,1,0,.08.09.09,0,0,1-.06.06l-3.45,1Zm.9-3.4-.78,3.19,3.16-.91Z" transform="translate(-0.96 -2)"/><path class="cls-2" d="M42.78,79.17a.06.06,0,0,1-.05,0,.07.07,0,0,1,0-.08l.12-.93a.13.13,0,0,1,.06-.07.08.08,0,0,1,.08,0l.75.57a.11.11,0,0,1,0,.08.08.08,0,0,1-.05.07l-.87.36Zm.2-.86-.09.64.59-.24Z" transform="translate(-0.96 -2)"/><path class="cls-2" d="M96.72,4.57h0L95.54,4s-.05,0-.05-.07a.08.08,0,0,1,0-.08l1-.73a.1.1,0,0,1,.09,0,.08.08,0,0,1,0,.07l.11,1.26a.08.08,0,0,1,0,.08Zm-1-.63.88.41-.09-1Z" transform="translate(-0.96 -2)"/><path class="cls-2" d="M49.34,12.18h0l-1.86-.94a.1.1,0,0,1,0-.08.07.07,0,0,1,0-.07l1.75-1.14a.07.07,0,0,1,.09,0,.08.08,0,0,1,0,.07l.11,2.08a.09.09,0,0,1,0,.08Zm-1.69-1,1.59.81-.09-1.78Z" transform="translate(-0.96 -2)"/><path class="cls-2" d="M83.2,14.73h0a.11.11,0,0,1-.06-.07L82,9.51a.08.08,0,0,1,0-.08.1.1,0,0,1,.09,0l5,1.65a.09.09,0,0,1,.06.06.11.11,0,0,1,0,.08l-3.93,3.51S83.22,14.73,83.2,14.73Zm-1-5.11,1,4.86L87,11.17Z" transform="translate(-0.96 -2)"/><path class="cls-2" d="M43,54.17a.08.08,0,0,1-.07,0,.1.1,0,0,1,0-.09l2.27-4.17a.12.12,0,0,1,.08,0s.06,0,.07,0l2.48,4.05a.14.14,0,0,1,0,.09.08.08,0,0,1-.07,0L43,54.17Zm2.27-4.08L43.11,54l4.44-.11Z" transform="translate(-0.96 -2)"/><path class="cls-2" d="M87.13,83.72a.07.07,0,0,1-.06,0,.08.08,0,0,1,0-.08l.25-1.12a.09.09,0,0,1,.06-.07.08.08,0,0,1,.08,0l.85.78a.08.08,0,0,1,0,.08.09.09,0,0,1-.06.07l-1.09.34Zm.3-1-.18.83.81-.25Z" transform="translate(-0.96 -2)"/><path class="cls-2" d="M32.65,54.64a.08.08,0,0,1-.07,0l-.7-.91a.08.08,0,0,1,0-.08.11.11,0,0,1,.07-.06l1.14-.15a.09.09,0,0,1,.08,0,.08.08,0,0,1,0,.08l-.44,1.07a.13.13,0,0,1-.07,0Zm-.54-.93.52.67.32-.79Z" transform="translate(-0.96 -2)"/><path class="cls-2" d="M69.81,69.25a.09.09,0,0,1-.07,0,.1.1,0,0,1,0-.09l1.88-4.37a.08.08,0,0,1,.07-.05.09.09,0,0,1,.08,0l2.84,3.81a.08.08,0,0,1-.06.13l-4.72.56ZM71.71,65,70,69.06l4.42-.52Z" transform="translate(-0.96 -2)"/><path class="cls-2" d="M88.78,19h0A.08.08,0,0,1,88.7,19l-1-3.22a.1.1,0,0,1,0-.09.1.1,0,0,1,.09,0l3.31.69a.11.11,0,0,1,.07.06.08.08,0,0,1,0,.08L88.85,19A.09.09,0,0,1,88.78,19Zm-.92-3.19,1,2.93,2.06-2.3Z" transform="translate(-0.96 -2)"/><path class="cls-2" d="M7.74,52.05h0s0,0-.06-.06l-.9-3.69a.08.08,0,0,1,.1-.1l3.65,1.06a.09.09,0,0,1,.06.06.08.08,0,0,1,0,.08L7.8,52A.06.06,0,0,1,7.74,52.05ZM7,48.39l.83,3.41,2.53-2.43Z" transform="translate(-0.96 -2)"/><path class="cls-2" d="M25.8,24.55h0l-1.53-.83s-.05,0-.05-.07a.1.1,0,0,1,0-.08l1.49-.92a.14.14,0,0,1,.09,0,.1.1,0,0,1,0,.08l.05,1.74a.09.09,0,0,1,0,.08Zm-1.36-.92,1.27.69,0-1.45Z" transform="translate(-0.96 -2)"/><path class="cls-2" d="M58.75,83.26a.08.08,0,0,1-.07,0,.1.1,0,0,1,0-.09l.4-.75a.1.1,0,0,1,.08,0,.08.08,0,0,1,.07,0l.46.73a.14.14,0,0,1,0,.09.1.1,0,0,1-.08,0l-.85,0Zm.41-.67-.27.49.56,0Z" transform="translate(-0.96 -2)"/><path class="cls-2" d="M39.2,56.27a.09.09,0,0,1-.08,0l-.58-1a.1.1,0,0,1,0-.09.09.09,0,0,1,.08,0l1.13,0a.07.07,0,0,1,.07,0,.07.07,0,0,1,0,.09l-.54,1a.08.08,0,0,1-.07,0Zm-.44-1,.43.7.4-.73Z" transform="translate(-0.96 -2)"/><path class="cls-2" d="M97.07,64.84h0l-3.19-.68s0,0-.06,0a.09.09,0,0,1,0-.09L96,61.59a.08.08,0,0,1,.08,0s0,0,.06.06l1,3.1a.08.08,0,0,1,0,.08A.09.09,0,0,1,97.07,64.84ZM94,64l2.9.61L96,61.82Z" transform="translate(-0.96 -2)"/><path class="cls-2" d="M32.76,91.58a.12.12,0,0,1-.08,0l-.44-.74a.06.06,0,0,1,0-.08.08.08,0,0,1,.07,0l.86,0s.06,0,.07,0a.06.06,0,0,1,0,.08l-.41.75a.08.08,0,0,1-.07,0Zm-.3-.74.29.48.27-.49Z" transform="translate(-0.96 -2)"/><path class="cls-2" d="M89.64,7h0a.1.1,0,0,1-.07,0L87.64,3.12a.08.08,0,0,1,0-.09.09.09,0,0,1,.08,0L92,3.23a.08.08,0,0,1,.07,0,.06.06,0,0,1,0,.08L89.71,6.94A.08.08,0,0,1,89.64,7Zm-1.78-3.8,1.79,3.55,2.17-3.33Z" transform="translate(-0.96 -2)"/><path class="cls-2" d="M41.54,4.86a.1.1,0,0,1-.07,0L40.39,3.26a.1.1,0,0,1,0-.09.08.08,0,0,1,.07,0L42.35,3a.08.08,0,0,1,.08,0,.1.1,0,0,1,0,.09l-.81,1.72a.08.08,0,0,1-.07.05Zm-.93-1.58.92,1.32.68-1.45Z" transform="translate(-0.96 -2)"/><path class="cls-2" d="M18.8,3.79h0a.08.08,0,0,1,0-.07l0-.93a.09.09,0,0,1,0-.08.06.06,0,0,1,.08,0l.83.43a.07.07,0,0,1,0,.07.07.07,0,0,1,0,.08l-.78.5Zm.06-.87,0,.63.54-.34Z" transform="translate(-0.96 -2)"/><path class="cls-2" d="M91.45,25.62h0l-3.33-.88s0,0-.06-.06a.08.08,0,0,1,0-.08l2.42-2.45a.08.08,0,0,1,.08,0,.11.11,0,0,1,.07.06l.9,3.32a.08.08,0,0,1,0,.08A.07.07,0,0,1,91.45,25.62Zm-3.16-1,3,.79-.83-3Z" transform="translate(-0.96 -2)"/><path class="cls-2" d="M44.66,33.5h0l-2-.13a.08.08,0,0,1-.07,0,.1.1,0,0,1,0-.09l1.12-1.69a.08.08,0,0,1,.08,0,.08.08,0,0,1,.07,0l.9,1.82s0,.06,0,.08A.09.09,0,0,1,44.66,33.5Zm-1.87-.29,1.72.11-.76-1.55Z" transform="translate(-0.96 -2)"/><path class="cls-2" d="M96.48,81.89h0l-4.59-2.23a.1.1,0,0,1,0-.07.08.08,0,0,1,0-.08l4.23-2.85a.08.08,0,0,1,.08,0,.08.08,0,0,1,0,.07l.36,5.09a.07.07,0,0,1,0,.07Zm-4.42-2.33,4.32,2.1L96,76.87Z" transform="translate(-0.96 -2)"/><path class="cls-2" d="M67,43.18h0l-1.1-.37a.11.11,0,0,1-.06-.07.11.11,0,0,1,0-.08l.87-.77a.1.1,0,0,1,.09,0,.09.09,0,0,1,.06.06l.23,1.14a.11.11,0,0,1,0,.08A.07.07,0,0,1,67,43.18Zm-.93-.49.82.28-.17-.85Z" transform="translate(-0.96 -2)"/><path class="cls-2" d="M63.69,19.7h0a.09.09,0,0,1-.06-.06l-.33-1.35a.08.08,0,0,1,.1-.1l1.33.38s.06,0,.06.06a.08.08,0,0,1,0,.08l-1,1Zm-.22-1.3.26,1.05.78-.76Z" transform="translate(-0.96 -2)"/><path class="cls-2" d="M44.92,17.18h0a.11.11,0,0,1-.07-.06l-.63-2.06a.1.1,0,0,1,0-.09.08.08,0,0,1,.08,0l2.11.48s.05,0,.06.06a.08.08,0,0,1,0,.08L45,17.15A.09.09,0,0,1,44.92,17.18Zm-.51-2L45,16.93l1.26-1.37Z" transform="translate(-0.96 -2)"/><path class="cls-2" d="M3,5h0s-.05,0-.06-.06l-.7-2.5a.1.1,0,0,1,0-.09.08.08,0,0,1,.08,0l2.53.64A.09.09,0,0,1,4.86,3a.08.08,0,0,1,0,.08L3,4.94ZM2.37,2.49,3,4.71,4.61,3.06Z" transform="translate(-0.96 -2)"/><path class="cls-2" d="M12.26,42.26a.08.08,0,0,1-.06,0,.08.08,0,0,1,0-.08l.69-1.66a.08.08,0,0,1,.07,0,.08.08,0,0,1,.08,0l1.09,1.42a.1.1,0,0,1,0,.09.08.08,0,0,1-.07.05l-1.77.24ZM13,40.68l-.57,1.39,1.48-.2Z" transform="translate(-0.96 -2)"/><path class="cls-2" d="M13.31,63.77a.07.07,0,0,1-.07,0l-2-3a.11.11,0,0,1,0-.08.08.08,0,0,1,.07,0l3.6-.2a.06.06,0,0,1,.07,0,.08.08,0,0,1,0,.08l-1.62,3.22a.1.1,0,0,1-.08,0Zm-1.82-3,1.81,2.77,1.49-3Z" transform="translate(-0.96 -2)"/><path class="cls-2" d="M55.94,56.44h0a.08.08,0,0,1,0-.07l-.31-2.51a.05.05,0,0,1,0-.07.08.08,0,0,1,.08,0l2.33,1a.09.09,0,0,1,.06.07.07.07,0,0,1,0,.07l-2,1.53ZM55.74,54,56,56.19l1.78-1.34Z" transform="translate(-0.96 -2)"/><path class="cls-2" d="M26.48,17.41h0l-3.87-.23a.08.08,0,0,1-.07,0,.14.14,0,0,1,0-.09l2.13-3.24a.08.08,0,0,1,.08,0,.08.08,0,0,1,.07,0l1.74,3.46a.1.1,0,0,1,0,.09A.08.08,0,0,1,26.48,17.41ZM22.77,17l3.57.21L24.73,14Z" transform="translate(-0.96 -2)"/><path class="cls-2" d="M3.94,22.87h0l-1.26,0a.08.08,0,0,1-.07-.05s0-.06,0-.08l.66-1.07a.09.09,0,0,1,.08,0,.1.1,0,0,1,.07,0L4,22.75a.08.08,0,0,1,0,.08A.07.07,0,0,1,3.94,22.87Zm-1.1-.2,1,0-.45-.84Z" transform="translate(-0.96 -2)"/><path class="cls-2" d="M77.53,16.93h0l-.8-.33a.08.08,0,0,1,0-.07.07.07,0,0,1,0-.08l.68-.53a.1.1,0,0,1,.09,0,.08.08,0,0,1,0,.07l.12.85s0,.07,0,.08S77.55,16.93,77.53,16.93Zm-.63-.44.53.22-.08-.56Z" transform="translate(-0.96 -2)"/><path class="cls-2" d="M96.69,86.71a.07.07,0,0,1-.06,0l-.8-.87a.11.11,0,0,1,0-.08.11.11,0,0,1,.07-.06L97,85.42a.08.08,0,0,1,.08,0,.1.1,0,0,1,0,.09l-.36,1.12a.09.09,0,0,1-.06.06Zm-.63-.9.59.64.27-.83Z" transform="translate(-0.96 -2)"/><path class="cls-2" d="M53.26,97.51h0l-3.63-.11a.08.08,0,0,1-.07,0,.1.1,0,0,1,0-.09l1.91-3.09a.12.12,0,0,1,.08,0,.08.08,0,0,1,.07,0l1.72,3.2s0,.06,0,.08A.09.09,0,0,1,53.26,97.51Zm-3.48-.28,3.33.11L51.53,94.4Z" transform="translate(-0.96 -2)"/><path class="cls-2" d="M89.52,70.51l-.06,0a.08.08,0,0,1,0-.08l.82-3.06a.09.09,0,0,1,.06-.06.1.1,0,0,1,.09,0l2.23,2.24a.08.08,0,0,1,0,.08s0,.06-.06.06l-3.06.82Zm.87-3-.75,2.77,2.77-.74Z" transform="translate(-0.96 -2)"/><path class="cls-2" d="M43.36,91.14h0a.08.08,0,0,1,0-.07v-.92a.09.09,0,0,1,0-.08s.06,0,.08,0l.81.45a.07.07,0,0,1,0,.07.09.09,0,0,1,0,.08l-.79.47Zm.07-.86v.62l.53-.32Z" transform="translate(-0.96 -2)"/><path class="cls-2" d="M65.11,13.1a.09.09,0,0,1-.07,0L62.25,9.91a.09.09,0,0,1,0-.09s0-.05.06-.05l4.13-.84a.11.11,0,0,1,.08,0,.08.08,0,0,1,0,.08l-1.34,4a.08.08,0,0,1-.07.05ZM62.48,9.91l2.59,2.93,1.25-3.71Z" transform="translate(-0.96 -2)"/><path class="cls-2" d="M47.65,21h0a.18.18,0,0,1,0-.07l-.11-1a.11.11,0,0,1,0-.08.14.14,0,0,1,.09,0l.89.39a.08.08,0,0,1,0,.07.08.08,0,0,1,0,.08L47.7,21Zm0-.91.08.67.54-.4Z" transform="translate(-0.96 -2)"/><path class="cls-2" d="M12.86,72.93h0l-4.36-1a.11.11,0,0,1-.07-.06.08.08,0,0,1,0-.08l3.07-3.27a.08.08,0,0,1,.08,0,.06.06,0,0,1,.06.06l1.3,4.29a.08.08,0,0,1,0,.08A.09.09,0,0,1,12.86,72.93Zm-4.2-1.16,4.07,1-1.21-4Z" transform="translate(-0.96 -2)"/><path class="cls-2" d="M66.09,91.67h0l-1.48-.41a.11.11,0,0,1-.06-.07.08.08,0,0,1,0-.08L65.65,90a.08.08,0,0,1,.08,0,.09.09,0,0,1,.06.07l.39,1.48a.14.14,0,0,1,0,.09Zm-1.31-.54,1.19.33-.31-1.2Z" transform="translate(-0.96 -2)"/><path class="cls-2" d="M76.8,11.73h0a.09.09,0,0,1-.06-.06l-.26-1.13a.14.14,0,0,1,0-.09.08.08,0,0,1,.08,0l1.11.35a.06.06,0,0,1,.06.06.08.08,0,0,1,0,.08l-.85.79A.09.09,0,0,1,76.8,11.73Zm-.14-1.1.19.84.63-.58Z" transform="translate(-0.96 -2)"/><path class="cls-2" d="M2.49,36.19h0a.11.11,0,0,1-.07-.06L1.87,34.5a.08.08,0,0,1,0-.08.11.11,0,0,1,.08,0l1.68.35a.11.11,0,0,1,.07.06.08.08,0,0,1,0,.08L2.55,36.16A.09.09,0,0,1,2.49,36.19Zm-.41-1.6.44,1.35.94-1.06Z" transform="translate(-0.96 -2)"/><path class="cls-2" d="M62.29,4h0l-.91-.62a.07.07,0,0,1,0-.07.1.1,0,0,1,.05-.08l1-.48a.09.09,0,0,1,.09,0,.07.07,0,0,1,0,.07l-.08,1.1a.08.08,0,0,1,0,.07Zm-.74-.69.66.45.06-.8Z" transform="translate(-0.96 -2)"/><path class="cls-2" d="M83.54,4.52s-.05,0-.07,0L82.8,3.38a.06.06,0,0,1,0-.08.08.08,0,0,1,.07,0l1.28,0a.09.09,0,0,1,.08,0,.11.11,0,0,1,0,.08l-.61,1.13s0,0-.07,0ZM83,3.42l.52.84L84,3.39Z" transform="translate(-0.96 -2)"/><path class="cls-2" d="M51.91,18.15h0a.08.08,0,0,1-.07,0l-.5-.87a.11.11,0,0,1,0-.08.1.1,0,0,1,.08,0h1a.08.08,0,0,1,.07,0,.08.08,0,0,1,0,.09l-.5.86A.1.1,0,0,1,51.91,18.15Zm-.35-.87.35.61.36-.61Z" transform="translate(-0.96 -2)"/><path class="cls-2" d="M63.76,37.53a.09.09,0,0,1-.06,0,.08.08,0,0,1,0-.08l.79-2.49a.06.06,0,0,1,.06,0,.08.08,0,0,1,.08,0l1.76,1.93a.08.08,0,0,1,0,.08.09.09,0,0,1-.06.06l-2.55.56Zm.83-2.4-.7,2.2,2.25-.5Z" transform="translate(-0.96 -2)"/><path class="cls-2" d="M25.33,75.26a.85.85,0,0,1-.22,0c-.08,0-.2-.06-.22,0a.09.09,0,0,1-.12,0,.08.08,0,0,1,0-.12c.09-.12.26-.08.41,0s.2.06.22,0,0-.14-.08-.21-.17-.27-.08-.4.27-.08.41,0,.2,0,.22,0,0-.14-.08-.21-.17-.27-.08-.4.27-.08.41,0,.2,0,.23,0,0-.14-.09-.21-.17-.28-.07-.4a.08.08,0,0,1,.12,0,.08.08,0,0,1,0,.12s.05.14.09.21.17.28.07.4-.26.08-.4,0-.21,0-.23,0,0,.14.09.21.16.28.07.41-.27.07-.41,0-.2-.06-.22,0,0,.14.08.21.17.28.08.41A.22.22,0,0,1,25.33,75.26Z" transform="translate(-0.96 -2)"/><path class="cls-2" d="M18.69,40.65a.07.07,0,0,1-.07,0,.08.08,0,0,1,0-.12c.25-.14.18-.58.11-1s-.17-1,.18-1.18.74.09,1.13.38.69.53.94.38.17-.59.1-1-.17-1,.18-1.17.74.09,1.13.38.69.52.93.37.17-.58.1-1-.16-1,.18-1.18.74.09,1.13.38.69.53.94.38a.07.07,0,0,1,.11,0,.08.08,0,0,1,0,.12c-.35.2-.75-.1-1.13-.39s-.7-.52-.94-.37-.17.58-.1,1,.16,1-.18,1.18-.74-.09-1.13-.38-.69-.53-.93-.38-.18.59-.1,1,.16,1-.19,1.17-.74-.09-1.13-.38-.69-.52-.93-.37-.17.58-.1,1,.16,1-.19,1.18Z" transform="translate(-0.96 -2)"/><path class="cls-2" d="M70.14,21.18h0a.1.1,0,0,1-.06-.11c.1-.29-.26-.59-.6-.88s-.79-.67-.66-1.07.66-.43,1.17-.46.91-.05,1-.34-.26-.59-.6-.88-.79-.67-.66-1.07.66-.42,1.17-.45.91-.06,1-.34-.26-.59-.61-.88-.79-.67-.65-1.07.65-.43,1.16-.46.92-.05,1-.33a.1.1,0,0,1,.11-.06.09.09,0,0,1,.06.11c-.14.4-.66.43-1.17.46s-.91.05-1,.34.26.58.6.87.79.67.66,1.07-.66.43-1.16.46-.92.05-1,.34.26.59.61.88.79.67.65,1.06-.65.43-1.16.46-.92.06-1,.34.26.59.6.88.79.67.66,1.07A.09.09,0,0,1,70.14,21.18Z" transform="translate(-0.96 -2)"/><path class="cls-2" d="M19.07,21.08A.08.08,0,0,1,19,21c0-.14-.26-.19-.48-.25s-.57-.13-.61-.39.22-.4.47-.55.41-.23.39-.37-.26-.19-.48-.25-.57-.13-.61-.39.22-.4.47-.54.41-.24.39-.38-.25-.19-.48-.24-.57-.14-.61-.39.22-.4.47-.55.41-.24.39-.37a.09.09,0,1,1,.17,0c0,.25-.22.4-.47.55s-.41.24-.39.37.25.2.48.25.57.14.61.39-.22.4-.47.55-.41.23-.39.37.25.19.48.25.57.13.61.38-.22.41-.47.55-.41.24-.39.38.25.19.48.24.57.14.61.39a.09.09,0,0,1-.07.1Z" transform="translate(-0.96 -2)"/><path class="cls-2" d="M72.11,46c-.23,0-.37-.25-.51-.49s-.24-.43-.39-.41a.07.07,0,0,1-.09-.07.08.08,0,0,1,.07-.1c.26,0,.41.23.56.49s.24.43.38.41.21-.26.27-.5.14-.59.4-.62.42.23.56.49.25.43.39.41.2-.26.26-.5.15-.59.41-.62.41.23.56.49.24.43.39.41.2-.26.26-.5.15-.59.41-.62a.07.07,0,0,1,.09.07.08.08,0,0,1-.07.1c-.14,0-.2.26-.26.5s-.15.59-.41.62-.41-.23-.56-.49-.25-.43-.39-.41-.2.26-.26.5-.15.59-.41.62-.41-.23-.56-.49-.24-.43-.38-.41-.21.26-.27.5-.14.59-.4.62Z" transform="translate(-0.96 -2)"/><path class="cls-2" d="M41.69,21.63a.41.41,0,0,1-.26-.09c-.27-.21-.16-.61,0-1s.19-.68,0-.82-.49,0-.79.22-.71.42-1,.21-.15-.62,0-1,.2-.68,0-.82-.49,0-.79.22-.72.42-1,.21-.15-.62,0-1,.2-.68,0-.82a.09.09,0,0,1,0-.13.09.09,0,0,1,.12,0c.27.21.15.62,0,1s-.2.68,0,.82.49,0,.79-.22.72-.42,1-.21.15.62,0,1-.2.68,0,.82.49,0,.79-.22.72-.42,1-.21.15.62,0,1-.2.69,0,.83.5-.05.8-.22.71-.42,1-.21a.09.09,0,0,1-.1.14c-.18-.14-.49,0-.8.22A1.66,1.66,0,0,1,41.69,21.63Z" transform="translate(-0.96 -2)"/><path class="cls-2" d="M86.25,66.11a.09.09,0,0,1-.06,0c-.29-.3-.07-.78.14-1.24s.38-.83.17-1-.64,0-1,.12-1,.38-1.25.08-.07-.78.14-1.24.38-.83.17-1-.64,0-1.05.13-1,.38-1.25.08-.07-.78.14-1.24.38-.83.17-1-.64-.05-1.06.12-.95.38-1.24.08a.08.08,0,1,1,.12-.12c.21.22.64,0,1.06-.12s1-.38,1.25-.08.07.78-.14,1.24-.38.83-.17,1,.64,0,1-.12,1-.39,1.25-.09.07.78-.14,1.24-.38.83-.17,1.05.64,0,1-.12,1-.39,1.25-.08.07.78-.14,1.24-.38.83-.17,1a.09.09,0,0,1,0,.13A.08.08,0,0,1,86.25,66.11Z" transform="translate(-0.96 -2)"/><path class="cls-2" d="M71.87,41.92h0a.08.08,0,0,1,0-.12c.17-.29-.15-.7-.46-1.09s-.69-.89-.46-1.29.8-.31,1.35-.23,1,.15,1.17-.14-.14-.7-.45-1.1-.7-.89-.47-1.28.8-.31,1.35-.23,1,.15,1.18-.14-.15-.7-.46-1.1-.7-.89-.47-1.28.8-.31,1.35-.23,1,.15,1.18-.14a.08.08,0,0,1,.12,0,.09.09,0,0,1,0,.12c-.23.39-.8.3-1.35.22s-1-.15-1.18.15.15.69.46,1.09.69.89.47,1.28-.8.31-1.35.23-1-.15-1.18.15.15.7.46,1.09.69.89.46,1.28-.8.31-1.35.23-1-.15-1.17.15.14.7.45,1.09.7.89.47,1.29A.09.09,0,0,1,71.87,41.92Z" transform="translate(-0.96 -2)"/><path class="cls-2" d="M85.71,46.07a.09.09,0,0,1-.08-.08c0-.43.45-.66.92-.89s.84-.41.82-.72-.47-.45-.91-.59-1-.33-1-.75.45-.66.92-.89.85-.41.83-.72-.48-.45-.92-.6-1-.32-1-.74.46-.67.92-.89.85-.41.83-.72-.48-.46-.92-.6-1-.32-1-.75a.08.08,0,0,1,.08-.09s.08,0,.09.08c0,.31.47.45.91.6s1,.32,1,.75-.45.66-.92.88-.85.41-.82.72.47.46.91.6,1,.32,1,.75-.46.66-.92.89-.85.4-.83.71.48.46.92.6,1,.32,1,.75-.45.66-.92.88-.84.41-.82.72a.1.1,0,0,1-.08.1Z" transform="translate(-0.96 -2)"/><path class="cls-2" d="M78.88,7.88a.09.09,0,0,1-.08,0c-.13-.28.13-.55.38-.81s.44-.44.36-.62-.4-.16-.7-.15S78.1,6.28,78,6s.13-.55.38-.81.43-.44.35-.62-.39-.16-.69-.15-.74,0-.86-.25.13-.55.38-.81.43-.45.35-.62-.39-.17-.7-.15-.73,0-.86-.26a.08.08,0,0,1,0-.11.08.08,0,0,1,.11,0c.08.18.39.17.7.15s.73,0,.86.26-.13.55-.39.81-.43.44-.35.62.4.16.7.15.74,0,.86.25-.13.55-.38.81-.43.44-.35.62.39.16.69.15.74,0,.86.25-.13.55-.38.81-.43.45-.35.62a.08.08,0,0,1,0,.11Z" transform="translate(-0.96 -2)"/><path class="cls-2" d="M58.68,49.5h-.06c-.15-.05-.16-.23-.17-.37s0-.21-.06-.22-.12.08-.17.15-.2.25-.35.2-.16-.23-.17-.37,0-.21-.06-.22-.11.09-.17.15-.2.25-.35.2-.16-.22-.17-.37,0-.2-.06-.22a.07.07,0,0,1,0-.1.08.08,0,0,1,.1-.06c.15.05.17.23.18.37s0,.21.05.22.12-.09.17-.15.2-.25.35-.2.17.22.18.37,0,.2.05.22.12-.09.17-.15.21-.25.35-.21.17.23.18.37,0,.21.05.22.12-.08.17-.15.21-.25.35-.2.08.06.06.11a.09.09,0,0,1-.11.06s-.11.08-.17.14S58.8,49.5,58.68,49.5Z" transform="translate(-0.96 -2)"/><path class="cls-2" d="M37.18,52.77a.07.07,0,0,1-.07,0c-.25-.41.12-.89.48-1.36s.65-.85.47-1.16-.73-.22-1.25-.14-1.18.19-1.42-.22.12-.9.48-1.36.65-.85.46-1.17-.72-.22-1.24-.14-1.18.19-1.42-.22.12-.89.47-1.36.66-.85.47-1.17-.72-.22-1.25-.14-1.17.19-1.42-.22A.09.09,0,0,1,32,44a.09.09,0,0,1,.12,0c.19.31.73.22,1.25.14s1.17-.19,1.42.23-.12.89-.48,1.35-.65.86-.47,1.17.73.23,1.25.14,1.18-.18,1.42.23-.12.89-.48,1.35-.65.86-.47,1.17.73.22,1.25.14,1.18-.19,1.42.22-.12.89-.48,1.36-.65.85-.47,1.16a.08.08,0,0,1,0,.12Z" transform="translate(-0.96 -2)"/><path class="cls-2" d="M80.27,68.16a.52.52,0,0,1-.45-.2c-.22-.3,0-.7.26-1.09s.43-.68.27-.9-.55-.1-.93,0-.9.23-1.12-.08,0-.7.26-1.09.43-.68.28-.9-.56-.1-.94,0-.9.23-1.12-.08,0-.7.26-1.09.43-.68.28-.89a.09.09,0,0,1,0-.12.09.09,0,0,1,.13,0c.22.3,0,.7-.27,1.08s-.43.69-.27.9.55.11.93,0,.9-.23,1.12.07,0,.71-.26,1.09-.43.69-.27.9.55.11.93,0,.9-.23,1.12.07,0,.71-.26,1.09-.43.69-.27.9.55.11.94,0,.89-.23,1.12.07a.11.11,0,0,1,0,.13.09.09,0,0,1-.12,0c-.16-.22-.56-.11-.94,0A2.88,2.88,0,0,1,80.27,68.16Z" transform="translate(-0.96 -2)"/><path class="cls-2" d="M79.26,97.78h0c-.35,0-.46-.47-.56-.88s-.17-.73-.41-.76-.42.3-.61.61-.43.75-.78.7-.45-.47-.55-.88-.18-.73-.42-.76-.42.29-.61.61-.42.75-.78.7-.45-.48-.55-.89-.18-.72-.42-.75-.42.29-.61.61-.43.75-.78.7a.08.08,0,0,1-.07-.1.08.08,0,0,1,.1-.07c.23,0,.42-.3.6-.62s.43-.75.79-.69.45.47.55.88.18.73.42.76.42-.3.61-.61.42-.75.78-.7.45.47.55.88.18.73.42.76.42-.29.6-.61.43-.75.78-.7.46.48.56.89.18.72.41.75a.1.1,0,0,1,.08.1A.11.11,0,0,1,79.26,97.78Z" transform="translate(-0.96 -2)"/><path class="cls-2" d="M24.53,96.73h0c-.29,0-.37-.39-.44-.73s-.13-.57-.3-.6-.33.23-.48.47-.36.6-.65.55-.37-.4-.44-.73-.13-.57-.3-.6-.33.22-.48.47-.36.6-.66.55-.36-.4-.44-.73-.12-.57-.3-.6-.33.22-.48.47-.36.59-.65.55a.09.09,0,0,1-.07-.1.08.08,0,0,1,.1-.07c.17,0,.33-.23.48-.47s.36-.6.65-.55.37.39.44.73.13.57.3.6.33-.23.48-.47.36-.6.65-.55.37.4.45.73.12.57.3.6.33-.22.47-.47.37-.6.66-.55.36.4.44.73.12.57.3.6a.09.09,0,0,1,.07.1A.1.1,0,0,1,24.53,96.73Z" transform="translate(-0.96 -2)"/><path class="cls-2" d="M42.05,47.11a.09.09,0,0,1-.07,0c-.08-.1,0-.22,0-.32s.06-.11,0-.13-.09,0-.13,0-.24.08-.33,0,0-.22,0-.32.06-.11.05-.14l-.13,0c-.11,0-.24.08-.33,0s0-.23,0-.33.06-.11,0-.13l-.13,0c-.11,0-.25.07-.33,0a.09.09,0,0,1,0-.12.09.09,0,0,1,.12,0,.27.27,0,0,0,.14,0c.11,0,.24-.08.33,0s0,.23,0,.33a.49.49,0,0,0-.06.13l.14,0c.11,0,.24-.07.33,0s0,.22,0,.32a.69.69,0,0,0-.06.13s.1,0,.14,0,.24-.08.33,0,0,.22,0,.32a.69.69,0,0,0-.06.13.08.08,0,0,1,0,.12S42.07,47.11,42.05,47.11Z" transform="translate(-0.96 -2)"/><path class="cls-2" d="M63.88,84.49h0a.08.08,0,0,1-.06-.1c0-.19.24-.23.43-.26s.28-.06.29-.13-.11-.15-.23-.22-.34-.22-.31-.4.25-.23.44-.27.28,0,.29-.12-.11-.15-.23-.23-.34-.21-.31-.4.25-.22.44-.26.28-.06.29-.13-.11-.15-.23-.22-.34-.22-.31-.4a.09.09,0,0,1,.1-.07.08.08,0,0,1,.07.1c0,.07.12.15.23.22s.35.22.31.4-.24.23-.43.27-.28,0-.3.12.12.16.23.23.35.22.31.4-.24.23-.43.26-.28.06-.3.13.12.15.24.22.34.22.3.4-.24.23-.43.27-.28,0-.3.12A.08.08,0,0,1,63.88,84.49Z" transform="translate(-0.96 -2)"/><path class="cls-2" d="M61.05,78.47h0a.1.1,0,0,1-.08-.1s-.09-.08-.13-.1-.23-.14-.21-.27.17-.17.28-.2.16,0,.16-.06-.1-.08-.13-.1-.24-.14-.22-.27.17-.17.29-.2.15,0,.15-.06S61.06,77,61,77s-.23-.14-.21-.27.16-.17.28-.2.16,0,.16-.06a.08.08,0,0,1,.1-.07.09.09,0,0,1,.07.1c0,.13-.17.17-.29.2s-.15,0-.15.05.1.08.13.1.24.14.21.28-.16.17-.28.2a.34.34,0,0,0-.16,0s.1.08.13.1.24.14.22.28-.17.17-.29.2-.15,0-.15,0,.09.08.13.1.24.14.22.28A.1.1,0,0,1,61.05,78.47Z" transform="translate(-0.96 -2)"/><path class="cls-2" d="M28.54,79.07c-.2,0-.4-.19-.6-.36s-.41-.38-.56-.3a.09.09,0,0,1-.07-.16c.25-.12.5.11.75.33s.4.37.56.3.13-.36.11-.63-.05-.67.2-.79.51.1.76.33.4.37.55.29.14-.35.12-.62-.05-.67.2-.79.51.1.75.32.41.37.57.3.13-.35.11-.62,0-.67.21-.8a.08.08,0,0,1,.11,0,.09.09,0,0,1,0,.12c-.15.07-.13.35-.11.62s.05.67-.21.8-.51-.11-.75-.33-.41-.37-.56-.3-.13.36-.11.63,0,.67-.21.79-.51-.1-.75-.33-.41-.37-.56-.29-.13.35-.11.62.05.67-.21.79A.28.28,0,0,1,28.54,79.07Z" transform="translate(-0.96 -2)"/><path class="cls-2" d="M8.53,80.52h0a.08.08,0,0,1-.07-.1c0-.07-.13-.16-.25-.23s-.35-.21-.32-.4.24-.24.43-.28.3-.07.31-.14-.13-.16-.25-.23-.35-.21-.32-.4.24-.24.43-.28.3-.07.31-.14-.13-.16-.25-.23-.35-.21-.32-.4.24-.24.43-.28.3-.07.31-.14a.08.08,0,0,1,.1-.07.09.09,0,0,1,.07.1c0,.19-.25.24-.44.28s-.29.06-.3.14.12.15.24.22.36.22.33.41-.25.23-.44.28-.29.06-.3.14.12.15.24.22.36.22.33.41-.25.23-.44.28-.29.06-.3.14.12.15.24.22.36.22.33.41A.09.09,0,0,1,8.53,80.52Z" transform="translate(-0.96 -2)"/><path class="cls-2" d="M56.92,96.87a.09.09,0,0,1-.09-.07.1.1,0,0,1,.08-.1c.21,0,.3-.34.39-.65s.22-.75.54-.78.51.32.68.66.3.59.51.57.3-.35.39-.66.22-.74.54-.77.51.32.68.66.3.58.51.56.3-.34.39-.65.22-.75.54-.78.51.32.68.66.3.59.51.57a.08.08,0,0,1,.09.08s0,.08-.07.09c-.33,0-.51-.32-.68-.66S62.3,95,62.1,95s-.3.35-.39.66-.22.74-.54.77-.51-.32-.68-.66-.31-.58-.51-.56-.3.34-.39.65-.22.75-.54.78-.51-.32-.68-.66-.3-.59-.51-.57-.3.34-.39.66-.22.74-.55.77Z" transform="translate(-0.96 -2)"/><path class="cls-2" d="M3.77,29.7a.1.1,0,0,1-.09-.07s-.12-.05-.17-.06-.28-.06-.31-.2.11-.22.21-.29.15-.1.14-.12-.12-.05-.17-.06-.28,0-.31-.19.11-.23.21-.3.15-.09.14-.12-.12-.05-.17-.06S3,28.18,2.94,28s.11-.23.22-.3.14-.09.13-.11a.09.09,0,0,1,.07-.11.1.1,0,0,1,.1.07c0,.14-.1.23-.21.3S3.1,28,3.11,28s.12,0,.17,0,.28.06.31.2-.1.23-.21.29-.15.1-.14.12.12,0,.17.06.28.05.31.2-.1.22-.21.29-.15.09-.14.12.12.05.17.06.28.05.31.19a.08.08,0,0,1-.07.1Z" transform="translate(-0.96 -2)"/><path class="cls-2" d="M44.8,97.79a.09.09,0,0,1-.09-.08c0-.06-.14-.1-.24-.13s-.35-.11-.37-.28.16-.26.32-.34.22-.11.21-.16-.13-.1-.24-.13-.35-.11-.36-.28.16-.26.31-.34.22-.11.22-.16-.14-.1-.25-.13-.35-.11-.36-.28.16-.26.31-.34.23-.11.22-.16a.1.1,0,0,1,.08-.1.1.1,0,0,1,.09.08c0,.17-.16.26-.31.34s-.22.11-.22.16.14.1.24.13.36.11.37.28-.16.26-.31.34-.23.11-.22.17.13.09.24.12.35.11.37.28-.16.26-.32.34-.22.11-.22.17.14.09.25.13.35.1.36.27a.09.09,0,0,1-.08.1Z" transform="translate(-0.96 -2)"/><path class="cls-2" d="M3.06,61.52a3,3,0,0,1-.83-.18c-.45-.14-.91-.29-1.12,0a.08.08,0,0,1-.12,0,.1.1,0,0,1,0-.13c.27-.34.8-.17,1.3,0s.92.29,1.12,0,0-.67-.27-1.09-.52-.94-.25-1.28.8-.17,1.31,0,.91.29,1.12,0,0-.68-.27-1.09-.53-.94-.26-1.28.8-.18,1.31,0,.92.28,1.12,0,0-.67-.27-1.08-.53-1-.25-1.29a.09.09,0,0,1,.12,0,.08.08,0,0,1,0,.12c-.2.25,0,.68.27,1.09s.53.94.25,1.28-.8.18-1.3,0-.92-.28-1.12,0,0,.67.27,1.09.52.94.25,1.28-.8.17-1.31,0S3.22,58.7,3,59s0,.68.26,1.09.53.94.26,1.28A.58.58,0,0,1,3.06,61.52Z" transform="translate(-0.96 -2)"/><path class="cls-2" d="M96,34.3a.53.53,0,0,1-.24-.06c-.41-.21-.35-.79-.3-1.34s.1-1-.2-1.17-.7.18-1.08.51-.86.74-1.26.53-.35-.79-.3-1.34.11-1-.2-1.18-.69.19-1.07.51-.86.75-1.27.53-.35-.78-.29-1.34.1-1-.2-1.17a.08.08,0,0,1,0-.11.09.09,0,0,1,.12,0c.41.21.35.78.29,1.34s-.1,1,.2,1.17.7-.18,1.08-.51.86-.74,1.26-.53.35.79.3,1.34-.1,1,.2,1.17.69-.18,1.07-.51.86-.74,1.27-.53.35.79.29,1.35-.1,1,.21,1.17.69-.18,1.07-.51.86-.74,1.27-.53a.09.09,0,0,1,0,.12.1.1,0,0,1-.12,0c-.3-.16-.7.18-1.08.51A1.84,1.84,0,0,1,96,34.3Z" transform="translate(-0.96 -2)"/><path class="cls-2" d="M71.71,73.58a.09.09,0,0,1-.06,0,.09.09,0,0,1,0-.12s0-.1-.05-.14-.11-.24,0-.33.23,0,.34,0a.3.3,0,0,0,.14,0s0-.1,0-.14-.11-.24,0-.33.23,0,.34,0a.3.3,0,0,0,.14,0s0-.1,0-.14-.11-.24,0-.33.23,0,.34,0a.3.3,0,0,0,.14,0,.08.08,0,0,1,.12.12c-.09.09-.22,0-.33,0a.3.3,0,0,0-.14,0s0,.1,0,.14.11.23,0,.33-.22,0-.33,0a.3.3,0,0,0-.14,0s0,.1,0,.14.11.23,0,.33-.22,0-.33,0a.3.3,0,0,0-.14,0s0,.1.05.14.11.23,0,.33A.07.07,0,0,1,71.71,73.58Z" transform="translate(-0.96 -2)"/><path class="cls-2" d="M47.18,44l-.06,0c-.34-.28-.17-.82,0-1.33s.31-.93.05-1.14-.69,0-1.11.26-1,.52-1.31.24-.17-.82,0-1.33.3-.94,0-1.15-.69,0-1.11.26-1,.52-1.31.24-.17-.82,0-1.33.3-.93,0-1.14-.69,0-1.12.25-1,.53-1.31.24a.09.09,0,1,1,.11-.13c.25.21.69,0,1.12-.26s1-.52,1.31-.24.17.82,0,1.33-.3.94,0,1.15.69,0,1.11-.26,1-.52,1.31-.24.17.82,0,1.33-.3.93,0,1.14.69,0,1.12-.26,1-.52,1.3-.24.17.82,0,1.33-.31.94-.06,1.15a.08.08,0,0,1,0,.12A.07.07,0,0,1,47.18,44Z" transform="translate(-0.96 -2)"/><path class="cls-2" d="M96.66,42.39h0a.09.09,0,0,1-.08-.09c0-.14.15-.19.27-.23S97,42,97,42s-.11-.07-.15-.09-.24-.11-.24-.25.15-.19.27-.23.15,0,.15-.07-.1-.07-.14-.09-.25-.11-.24-.25.15-.19.26-.23a.4.4,0,0,0,.16-.07s-.11-.07-.15-.09-.25-.12-.24-.25a.09.09,0,1,1,.17,0s.11.07.15.08.24.12.24.26-.15.18-.27.22-.15,0-.15.08.1.07.14.08.25.12.24.26-.15.18-.26.22-.15,0-.16.08.11.07.15.08.25.12.24.26-.15.18-.27.22-.15.05-.15.08A.09.09,0,0,1,96.66,42.39Z" transform="translate(-0.96 -2)"/><path class="cls-2" d="M72.48,92.17h0c-.13,0-.18-.14-.23-.25a.09.09,0,1,0-.14,0c0,.11-.11.24-.24.24h0c-.14,0-.19-.14-.23-.25s0-.13-.07-.14a.58.58,0,0,0-.08.14c0,.11-.1.24-.23.24h0c-.13,0-.18-.14-.22-.25s0-.13-.08-.14a.09.09,0,0,1-.08-.09.08.08,0,0,1,.09-.08c.13,0,.19.14.23.25a.09.09,0,1,0,.14,0c.05-.11.11-.24.24-.24s.19.14.23.25,0,.13.07.14a.58.58,0,0,0,.08-.14c0-.11.11-.25.24-.24s.18.14.22.25,0,.13.08.14,0-.09.07-.13.1-.25.24-.25h0a.09.09,0,0,1,.09.09c0,.05,0,.09-.09.09h0s-.06.09-.08.13S72.61,92.17,72.48,92.17Z" transform="translate(-0.96 -2)"/><path class="cls-2" d="M38.41,41.78h0c-.16-.05-.18-.23-.19-.39s0-.23-.06-.25-.13.09-.2.17-.22.27-.37.22-.18-.24-.19-.4,0-.23-.06-.25-.13.09-.2.17-.22.27-.38.22-.17-.24-.18-.4,0-.23-.07-.25-.13.09-.19.17-.22.27-.38.22a.08.08,0,0,1-.05-.11.07.07,0,0,1,.1,0c.05,0,.14-.09.2-.17s.22-.27.38-.22.17.23.18.4,0,.23.07.24.13-.09.19-.16.22-.27.38-.22.17.23.18.4,0,.23.07.24.13-.09.19-.16.22-.27.38-.22.17.23.18.39,0,.23.07.25a.08.08,0,0,1,.05.11A.09.09,0,0,1,38.41,41.78Z" transform="translate(-0.96 -2)"/><path class="cls-2" d="M90.76,53.23a1.63,1.63,0,0,1-.42-.08c-.23,0-.47-.12-.55,0a.09.09,0,0,1-.12,0s0-.08,0-.12c.16-.2.45-.13.73,0s.46.12.54,0,0-.32-.17-.52-.31-.5-.16-.71.45-.13.73-.06.46.12.54,0,0-.32-.17-.52-.31-.5-.16-.71.45-.13.73-.05.46.12.54,0,0-.32-.17-.52-.31-.51-.16-.71a.08.08,0,0,1,.12,0,.08.08,0,0,1,0,.12c-.08.11,0,.32.17.52s.31.5.16.71-.44.13-.73.05-.46-.12-.54,0,0,.32.17.51.31.51.16.71-.44.13-.73.06-.46-.12-.54,0,0,.32.17.52.31.5.16.71A.34.34,0,0,1,90.76,53.23Z" transform="translate(-0.96 -2)"/><path class="cls-2" d="M55.25,62.81a.89.89,0,0,1-.47-.26c-.16-.12-.32-.25-.42-.2a.08.08,0,0,1-.12,0,.1.1,0,0,1,0-.12c.21-.11.42.06.62.22s.32.26.42.2.07-.26,0-.46-.07-.53.13-.64.42.06.62.22.32.25.42.2.07-.27,0-.47-.07-.52.13-.63.43.06.62.21.32.26.42.2.07-.26,0-.46-.07-.52.14-.64a.08.08,0,0,1,.11,0,.07.07,0,0,1,0,.11c-.1.06-.07.27,0,.47s.07.52-.14.63-.42-.06-.61-.21-.32-.26-.42-.2-.07.26-.05.46.07.52-.13.64-.42-.06-.61-.22-.32-.26-.42-.2-.07.26,0,.46.07.53-.13.64A.23.23,0,0,1,55.25,62.81Z" transform="translate(-0.96 -2)"/><path class="cls-2" d="M95.54,57h0a.09.09,0,0,1-.05-.11c0-.14.2-.15.34-.16s.17,0,.18,0-.08-.11-.13-.15-.22-.18-.18-.32.21-.16.34-.16.18,0,.19,0-.08-.11-.13-.15-.23-.19-.18-.33.2-.15.34-.16.18,0,.18,0-.08-.1-.12-.14-.23-.19-.19-.33a.09.09,0,0,1,.11,0,.08.08,0,0,1,.06.1s.08.11.13.15.22.19.18.33-.21.15-.34.16-.18,0-.19,0,.08.1.13.14.23.19.18.33-.21.15-.34.16-.18,0-.19,0,.09.1.13.14.23.19.19.33-.21.15-.34.16-.18,0-.19,0A.08.08,0,0,1,95.54,57Z" transform="translate(-0.96 -2)"/><path class="cls-2" d="M55.32,86h0c-.2-.07-.2-.32-.2-.53s0-.35-.09-.38-.21.1-.32.22-.31.34-.51.27S54,85.25,54,85s0-.34-.09-.38-.21.1-.32.23-.31.34-.51.26-.2-.32-.2-.53,0-.35-.09-.38-.21.1-.32.22-.31.34-.51.27a.09.09,0,0,1,0-.11.08.08,0,0,1,.11,0c.09,0,.21-.1.32-.23s.31-.33.51-.26.2.32.2.53,0,.35.09.38.21-.09.32-.22.31-.34.51-.27.2.32.2.54,0,.34.09.38.21-.1.32-.22.31-.34.51-.27.2.32.2.53,0,.35.09.38a.09.09,0,0,1,0,.11A.08.08,0,0,1,55.32,86Z" transform="translate(-0.96 -2)"/><path class="cls-2" d="M22.33,69.24c-.21,0-.35-.23-.48-.44s-.24-.38-.37-.36a.09.09,0,0,1-.1-.06.09.09,0,0,1,.07-.11c.24,0,.39.2.54.44s.24.37.37.35.17-.24.21-.46.11-.55.35-.6.4.2.55.43.23.38.36.36.17-.25.22-.46.11-.56.35-.6.39.19.54.43.24.38.37.35.17-.24.21-.46.11-.55.35-.6a.1.1,0,0,1,.11.07.1.1,0,0,1-.07.1c-.13,0-.18.25-.22.47s-.11.55-.35.59-.4-.19-.54-.43-.24-.37-.37-.35-.17.24-.21.46-.11.55-.36.6-.39-.2-.54-.43-.24-.38-.37-.36-.17.25-.21.46-.11.56-.35.6Z" transform="translate(-0.96 -2)"/><path class="cls-2" d="M96.67,97.76h0c-.45,0-.65-.55-.83-1.07s-.34-1-.68-1-.54.46-.74.91-.44,1-.88,1h0c-.45,0-.65-.55-.83-1.07s-.35-.94-.68-1-.54.46-.74.91-.44,1-.9,1-.65-.55-.84-1.07-.34-.94-.68-1h0c-.33,0-.53.46-.73.91s-.45,1-.9,1a.08.08,0,0,1-.08-.09.09.09,0,0,1,.09-.08c.34,0,.54-.46.74-.91s.45-1,.9-1,.65.55.83,1.06.35,1,.68,1h0c.32,0,.53-.46.72-.91s.45-1,.89-1h0c.46,0,.65.55.84,1.07s.34.94.68,1,.54-.46.73-.91.46-1,.91-1,.64.55.83,1.07.34.94.68,1a.11.11,0,0,1,.08.09A.09.09,0,0,1,96.67,97.76Z" transform="translate(-0.96 -2)"/><path class="cls-2" d="M66.13,52.33a.09.09,0,0,1-.08-.07c-.06-.2-.4-.24-.73-.27s-.8-.08-.89-.4.23-.57.54-.81.54-.42.48-.62-.41-.24-.74-.28-.79-.08-.88-.4.22-.56.53-.8.54-.42.48-.63-.4-.24-.73-.27-.8-.08-.89-.4.23-.57.54-.81.54-.41.48-.62c0-.05,0-.09.06-.11a.09.09,0,0,1,.1.06c.1.32-.22.57-.53.81s-.54.41-.48.62.4.24.73.28.8.08.89.39-.23.57-.54.81-.54.42-.48.63.4.24.74.27.79.08.88.4-.23.57-.54.81-.53.41-.47.62.4.24.73.28.8.08.89.4a.09.09,0,0,1-.06.1Z" transform="translate(-0.96 -2)"/><path class="cls-2" d="M53,68.73a.09.09,0,0,1-.06,0c-.22-.24,0-.59.11-.93s.28-.59.15-.74-.45,0-.75.09-.72.27-.94,0,0-.59.11-.94.28-.58.14-.73-.44,0-.74.08-.72.27-.94,0,0-.59.11-.93.28-.59.14-.74-.45,0-.75.08-.71.28-.93,0a.09.09,0,0,1,0-.12.08.08,0,0,1,.12,0c.14.15.45,0,.75-.08s.72-.28.94,0,0,.59-.11.93-.28.59-.14.74.45,0,.74-.08.72-.28.94,0,0,.59-.11.93-.28.59-.14.74.45,0,.75-.09.71-.27.93,0,0,.59-.11.93-.28.59-.14.74a.09.09,0,0,1,0,.13Z" transform="translate(-0.96 -2)"/><path class="cls-2" d="M33.35,86.67l-.05,0c-.2-.16-.11-.45,0-.73s.15-.46,0-.55-.32,0-.53.14-.52.29-.72.12-.1-.45,0-.73.15-.46,0-.55-.32,0-.53.14-.52.29-.72.12-.11-.45,0-.73.15-.46,0-.55-.32,0-.53.14-.52.28-.72.12a.09.09,0,1,1,.11-.13c.11.09.32,0,.53-.14s.53-.28.72-.12.11.45,0,.73-.15.46,0,.55.32,0,.53-.14.52-.28.72-.12.1.45,0,.73-.15.46,0,.55.32,0,.53-.14.53-.28.72-.12.11.45,0,.73-.15.46,0,.55a.09.09,0,0,1-.06.15Z" transform="translate(-0.96 -2)"/><path class="cls-2" d="M58.55,32a.32.32,0,0,1-.19,0c-.26-.16-.21-.52-.16-.87s.1-.61-.07-.7-.41.09-.64.27-.58.45-.84.29-.21-.52-.15-.87.09-.6-.08-.7-.4.1-.64.28-.57.45-.84.29-.21-.52-.15-.87.09-.6-.07-.7a.08.08,0,0,1,0-.12.09.09,0,0,1,.12,0c.26.16.2.52.15.87s-.09.61.07.7.41-.09.64-.28.58-.44.84-.29.21.52.16.88-.1.6.07.7.41-.1.64-.28.58-.45.84-.29.21.52.15.87-.09.6.08.7.41-.09.64-.28.58-.44.84-.29a.09.09,0,0,1,0,.12.08.08,0,0,1-.12,0c-.16-.09-.4.1-.64.28A1.25,1.25,0,0,1,58.55,32Z" transform="translate(-0.96 -2)"/><path class="cls-2" d="M47.5,30.24a.08.08,0,0,1-.07,0c-.18-.28,0-.6.27-.92s.39-.54.28-.72-.45-.11-.77,0-.77.16-1-.12.05-.6.27-.91.39-.55.28-.73-.45-.11-.77,0-.77.15-.95-.13,0-.6.27-.91.39-.55.27-.73-.44-.11-.77-.05-.77.16-.94-.12a.08.08,0,0,1,0-.12.1.1,0,0,1,.12,0c.12.17.45.11.77.05s.77-.16,1,.12-.05.6-.28.92-.38.54-.27.72.45.11.77.05.77-.16,1,.12-.05.6-.28.92-.38.54-.27.72.45.11.77.05.77-.16.95.12,0,.6-.28.91-.38.55-.27.72a.08.08,0,0,1,0,.12Z" transform="translate(-0.96 -2)"/><path class="cls-2" d="M32.32,37.16a.09.09,0,0,1-.08,0c-.13-.31-.64-.3-1.13-.29s-1.12,0-1.3-.4.23-.82.62-1.2.71-.71.58-1-.64-.3-1.13-.29-1.12,0-1.3-.39.23-.82.62-1.2.72-.71.59-1-.64-.3-1.14-.29-1.12,0-1.29-.39.23-.82.62-1.2.71-.71.58-1a.09.09,0,1,1,.16-.06c.18.41-.23.81-.62,1.2s-.72.71-.59,1,.65.3,1.14.29,1.12,0,1.29.39-.22.82-.62,1.21-.71.7-.58,1,.64.3,1.13.29,1.12,0,1.3.39-.23.82-.62,1.21-.71.71-.58,1,.64.29,1.13.28,1.12,0,1.3.4a.08.08,0,0,1,0,.11Z" transform="translate(-0.96 -2)"/><path class="cls-2" d="M42.56,67.48h0a.09.09,0,0,1-.07-.1c.06-.48.65-.64,1.23-.8s1.06-.28,1.11-.65-.45-.63-.92-.89-1.07-.58-1-1.07.66-.64,1.24-.8,1.06-.28,1.1-.65-.44-.63-.92-.89-1.07-.58-1-1.07.65-.64,1.23-.8,1.06-.28,1.11-.65-.45-.64-.92-.9-1.07-.58-1-1.07a.1.1,0,0,1,.1-.07.1.1,0,0,1,.08.1c0,.36.44.63.92.89s1.07.58,1,1.07-.66.64-1.23.8-1.07.28-1.11.65.45.64.92.9,1.07.58,1,1.06-.65.65-1.23.8-1.06.29-1.11.65.45.64.93.9,1.07.58,1,1.06-.66.65-1.23.8-1.07.28-1.11.65A.09.09,0,0,1,42.56,67.48Z" transform="translate(-0.96 -2)"/><path class="cls-2" d="M27.91,9A.1.1,0,0,1,27.82,9c0-.23-.41-.3-.76-.36s-.83-.16-.9-.5.3-.58.64-.8.61-.4.57-.63-.41-.3-.76-.36-.83-.15-.9-.5.29-.57.64-.8.61-.4.56-.62-.41-.3-.76-.37-.83-.15-.9-.49.3-.58.64-.8.61-.4.57-.63a.09.09,0,0,1,.17,0c.07.34-.29.58-.64.8s-.61.4-.57.62.41.3.76.37.83.15.9.49-.29.58-.64.8-.61.4-.56.63.41.29.76.36.83.15.9.5-.29.57-.64.8-.61.4-.57.63.41.29.76.36.83.15.9.49a.09.09,0,0,1-.06.11Z" transform="translate(-0.96 -2)"/><path class="cls-2" d="M89,62.67h0a.09.09,0,0,1-.08-.1c0-.32.42-.41.79-.51s.64-.16.66-.36-.26-.37-.54-.53-.68-.37-.63-.69.42-.42.79-.51.63-.16.66-.37-.27-.36-.55-.52-.67-.38-.63-.7.42-.42.79-.51.64-.16.66-.37-.26-.36-.54-.52-.68-.38-.63-.7a.07.07,0,0,1,.09-.07.09.09,0,0,1,.08.09c0,.21.26.37.54.53s.67.38.63.7-.42.41-.79.51-.63.16-.66.36.27.37.55.53.67.37.63.69-.42.42-.79.51-.64.17-.66.37.26.37.54.52.67.38.63.7-.42.42-.79.51-.63.16-.66.37A.08.08,0,0,1,89,62.67Z" transform="translate(-0.96 -2)"/><path class="cls-2" d="M84.93,73.26h0a.08.08,0,0,1-.07-.1c0-.08-.13-.18-.25-.27s-.37-.25-.33-.45.28-.23.49-.27.32,0,.34-.13-.13-.18-.26-.27-.36-.25-.32-.45.28-.23.48-.27.33-.05.35-.13-.13-.19-.26-.27-.37-.25-.32-.45.27-.23.48-.27.33,0,.34-.13a.09.09,0,0,1,.11-.07.09.09,0,0,1,.06.1c0,.2-.27.24-.48.27s-.33,0-.34.14.12.18.25.27.37.25.32.44-.27.24-.48.27-.32.06-.34.14.12.18.25.27.37.25.33.45-.28.23-.49.26-.32.06-.34.14.13.18.25.27.37.25.33.45A.1.1,0,0,1,84.93,73.26Z" transform="translate(-0.96 -2)"/><path class="cls-2" d="M51.78,38.75a.08.08,0,0,1-.08-.07c0-.18-.33-.24-.62-.3s-.69-.14-.75-.44.25-.48.55-.67.5-.32.47-.5-.33-.24-.62-.29S50,36.34,50,36s.26-.48.55-.67.5-.32.47-.5-.33-.23-.61-.29-.7-.14-.75-.44.25-.48.54-.67.51-.31.47-.49a.08.08,0,0,1,.07-.1.08.08,0,0,1,.1.07c.06.29-.25.48-.55.67s-.5.31-.46.49.32.24.61.3.7.14.75.43-.25.49-.55.68-.5.31-.47.49.33.24.62.3.69.14.75.43-.25.49-.55.68-.5.31-.47.49.33.24.62.3.69.14.75.44a.1.1,0,0,1-.07.1Z" transform="translate(-0.96 -2)"/><path class="cls-2" d="M16.24,68h0a.1.1,0,0,1,0-.12c.13-.2.42-.14.67-.09s.42.08.48,0-.06-.28-.18-.45-.31-.45-.18-.65.42-.14.67-.09.41.09.48,0-.06-.28-.18-.46-.31-.44-.18-.64.41-.14.66-.09.42.08.49,0-.06-.28-.18-.45-.31-.45-.18-.65a.08.08,0,0,1,.12,0,.1.1,0,0,1,0,.12c-.07.1.05.28.17.45s.32.45.18.65-.41.14-.66.09-.42-.09-.48,0,.05.28.17.46.32.44.18.64-.41.14-.66.09-.42-.08-.48,0,0,.28.17.45.32.44.19.64-.42.15-.67.09-.42-.08-.48,0A.09.09,0,0,1,16.24,68Z" transform="translate(-0.96 -2)"/><path class="cls-2" d="M47.2,87.44h0a.09.09,0,0,1-.06-.1c.08-.25-.24-.51-.55-.76s-.72-.57-.61-.94.57-.4,1-.44.8-.07.88-.32-.25-.51-.56-.76-.72-.57-.61-.94.58-.4,1-.44.8-.07.88-.32-.25-.51-.56-.75-.72-.58-.61-.94.58-.41,1-.44.8-.07.88-.32a.09.09,0,0,1,.11-.06.08.08,0,0,1,0,.11c-.1.36-.57.4-1,.44s-.81.07-.88.32.24.5.55.75.72.58.61.94-.57.4-1,.44-.8.07-.88.32.25.51.56.76.72.57.61.94-.58.4-1,.44-.8.07-.88.32.25.51.56.76.72.57.61.94A.1.1,0,0,1,47.2,87.44Z" transform="translate(-0.96 -2)"/><path class="cls-2" d="M76.71,28.73a.07.07,0,0,1-.06,0c-.26-.23-.11-.63,0-1s.25-.69.08-.84-.51,0-.83.17-.75.37-1,.14-.12-.63,0-1,.25-.69.08-.84-.5,0-.82.17-.76.37-1,.14-.11-.64,0-1,.24-.68.07-.83-.5,0-.82.16-.76.38-1,.15a.09.09,0,0,1,.11-.13c.18.15.51,0,.83-.17s.75-.38,1-.14.11.63,0,1-.25.69-.08.84.51,0,.83-.17.75-.37,1-.14.12.64,0,1-.25.68-.08.83.51,0,.83-.17.75-.37,1-.14.11.64,0,1-.25.68-.07.83a.08.08,0,0,1,0,.12A.07.07,0,0,1,76.71,28.73Z" transform="translate(-0.96 -2)"/><path class="cls-2" d="M17.28,48.1h0c-.26-.05-.32-.36-.38-.66s-.1-.51-.25-.53-.29.19-.42.4-.34.53-.6.48-.33-.36-.39-.67-.1-.5-.25-.52-.29.19-.42.4-.34.53-.6.48-.33-.36-.39-.67-.1-.5-.25-.53-.28.19-.42.41-.34.52-.6.48a.09.09,0,0,1,0-.17c.15,0,.29-.19.43-.41s.33-.53.6-.48.32.37.38.67.1.5.25.53.29-.19.42-.4.34-.53.61-.48.32.36.38.66.1.5.25.53.29-.19.42-.4.34-.53.6-.48.33.36.39.66.1.5.24.53a.08.08,0,0,1,.07.1A.08.08,0,0,1,17.28,48.1Z" transform="translate(-0.96 -2)"/><path class="cls-2" d="M22.21,89.61a.1.1,0,0,1-.08-.06c0-.07-.17-.08-.3-.09s-.4,0-.45-.21.11-.31.25-.42.22-.18.2-.24-.17-.08-.3-.09-.39,0-.45-.21.11-.31.26-.42.22-.18.2-.24-.17-.08-.3-.09-.4,0-.45-.21.11-.3.25-.42.22-.18.2-.24a.09.09,0,0,1,.06-.11.1.1,0,0,1,.11.06c.05.17-.11.31-.26.42s-.22.18-.2.24.17.08.3.09.4,0,.45.21-.11.3-.25.42-.22.18-.2.24.17.08.3.09.39,0,.45.21-.11.3-.26.42-.21.18-.2.24.17.08.3.09.4,0,.45.21a.07.07,0,0,1-.05.1Z" transform="translate(-0.96 -2)"/><path class="cls-2" d="M93.33,45.41h0c-.14-.06-.13-.24-.12-.38s0-.2,0-.21-.12.06-.18.12-.23.21-.37.14-.13-.24-.12-.38,0-.2,0-.21-.12.06-.18.12-.23.21-.37.14-.12-.24-.12-.38,0-.2,0-.21-.12.06-.18.12-.23.21-.37.14a.08.08,0,0,1,0-.11.1.1,0,0,1,.12,0s.12-.07.18-.12.23-.21.37-.15.13.24.12.38,0,.2,0,.22.12-.07.18-.12.23-.21.37-.15.12.24.11.38,0,.2,0,.22.13-.07.18-.12.24-.21.37-.15.13.24.12.38,0,.2,0,.22a.08.08,0,0,1,0,.11A.08.08,0,0,1,93.33,45.41Z" transform="translate(-0.96 -2)"/><path class="cls-2" d="M87,77.84h0c-.36,0-.51-.43-.65-.84s-.26-.72-.51-.73h0c-.24,0-.4.35-.55.69s-.35.8-.71.79-.52-.43-.66-.84-.26-.72-.5-.73-.4.35-.55.69-.35.79-.72.79-.51-.44-.65-.84-.26-.72-.5-.73a.09.09,0,0,1-.09-.09.1.1,0,0,1,.09-.08c.36,0,.51.43.66.84s.25.72.5.73.4-.35.55-.69.35-.8.72-.79.51.44.65.84.26.72.5.73.4-.35.55-.69.36-.8.72-.79.51.44.66.84.25.72.5.73.4-.35.55-.69.35-.79.72-.79a.09.09,0,1,1,0,.17c-.24,0-.4.35-.55.69S87.32,77.84,87,77.84Z" transform="translate(-0.96 -2)"/><path class="cls-2" d="M19.25,59.76l-.05,0a.08.08,0,0,1,0-.12c.17-.26-.1-.66-.37-1s-.61-.88-.37-1.24.77-.25,1.29-.15.93.2,1.11-.07-.11-.66-.37-1-.61-.88-.37-1.24.77-.25,1.28-.15.94.2,1.11-.06-.1-.67-.37-1.05-.6-.88-.37-1.24.78-.25,1.29-.14.93.19,1.11-.07a.08.08,0,0,1,.12,0,.09.09,0,0,1,0,.12c-.24.36-.77.24-1.29.14s-.93-.2-1.1.07.1.66.37,1,.6.88.36,1.24-.77.25-1.28.14-.93-.19-1.11.07.1.66.37,1,.61.88.37,1.24-.77.25-1.29.14-.93-.19-1.1.07.1.66.36,1,.61.88.37,1.24A.1.1,0,0,1,19.25,59.76Z" transform="translate(-0.96 -2)"/><path class="cls-2" d="M71.67,56s-.07,0-.08,0c-.16-.31.12-.63.39-1s.48-.54.38-.74-.47-.18-.83-.14-.83.07-1-.24.12-.63.39-.94.48-.54.37-.75-.47-.17-.82-.14-.84.08-1-.23.13-.63.4-.94.47-.55.37-.75-.47-.18-.83-.14-.83.07-1-.24a.08.08,0,0,1,0-.11.08.08,0,0,1,.11,0c.11.21.47.18.83.14s.83-.07,1,.24-.12.63-.39.94-.48.54-.37.75.47.17.82.14.84-.08,1,.23-.13.63-.4,1-.47.54-.37.75.47.17.83.13.83-.07,1,.24-.12.63-.4.94-.47.54-.37.75a.08.08,0,0,1,0,.11Z" transform="translate(-0.96 -2)"/><path class="cls-2" d="M13.88,79.13a.09.09,0,0,1-.08,0c-.07-.13,0-.25.12-.35s.11-.14.1-.16-.13,0-.19,0-.3,0-.37-.09,0-.26.12-.36.12-.13.1-.16-.13,0-.19,0-.29,0-.36-.09,0-.25.12-.35.11-.14.1-.17-.13,0-.19,0-.3,0-.37-.1a.08.08,0,0,1,0-.11.09.09,0,0,1,.12,0s.12,0,.19,0,.29,0,.36.09,0,.25-.12.36-.11.13-.1.16.13,0,.19,0,.29,0,.36.1,0,.25-.11.35-.12.14-.1.16.13,0,.19,0,.29,0,.36.09,0,.26-.12.36-.11.13-.1.16a.1.1,0,0,1,0,.12Z" transform="translate(-0.96 -2)"/><path class="cls-2" d="M68.08,78.54a.09.09,0,0,1-.07,0c-.24-.3,0-.72.22-1.13s.41-.73.24-.95-.58-.08-1,0-.91.28-1.16,0,0-.73.22-1.13.41-.73.24-.95-.58-.08-1,0-.91.28-1.15,0,0-.73.22-1.14.41-.73.23-.94-.58-.09-1,0-.91.29-1.16,0a.08.08,0,0,1,0-.12.09.09,0,0,1,.12,0c.17.22.58.09,1,0s.91-.28,1.16,0,0,.73-.22,1.14-.41.73-.24.94.58.09,1,0,.91-.28,1.16,0,0,.73-.22,1.14-.41.73-.24.94.58.09,1,0,.91-.29,1.15,0,0,.72-.22,1.13-.41.73-.24.94a.08.08,0,0,1,0,.12S68.1,78.54,68.08,78.54Z" transform="translate(-0.96 -2)"/><path class="cls-2" d="M27.64,88.45a.22.22,0,0,1-.19-.09c-.09-.12,0-.27.08-.4s.12-.17.09-.2-.14,0-.22,0-.32.08-.41,0,0-.28.09-.4.11-.17.08-.21-.14,0-.22,0-.31.08-.41,0,0-.27.09-.4.11-.17.09-.21a.08.08,0,0,1,0-.12.09.09,0,0,1,.12,0c.09.13,0,.28-.09.4s-.11.18-.09.21.15,0,.23,0,.31-.07.41.05,0,.28-.09.4-.11.18-.09.21.15,0,.23,0,.31-.08.4,0,0,.28-.08.4-.11.17-.09.2.14,0,.23,0,.31-.08.4,0a.09.09,0,0,1-.14.1s-.14,0-.22,0Z" transform="translate(-0.96 -2)"/><path class="cls-2" d="M44.06,73.54h0c-.39-.23-.3-.78-.21-1.32s.16-1-.12-1.14-.68.14-1.06.43-.88.67-1.26.44-.29-.78-.2-1.31.15-1-.13-1.14-.68.13-1.06.42-.88.67-1.26.44-.29-.78-.2-1.31.15-1-.13-1.14-.68.13-1.06.42-.88.67-1.26.44a.09.09,0,0,1,0-.12.09.09,0,0,1,.12,0c.28.17.68-.13,1.06-.43s.88-.66,1.26-.43.29.78.21,1.31-.16,1,.12,1.14.68-.13,1.06-.42.88-.67,1.26-.44.29.78.21,1.31-.16,1,.12,1.14.68-.13,1.06-.43.88-.66,1.26-.43.29.78.2,1.31-.16,1,.12,1.14a.08.08,0,0,1,0,.12A.08.08,0,0,1,44.06,73.54Z" transform="translate(-0.96 -2)"/><path class="cls-2" d="M16.91,52.42h0c-.14,0-.18-.15-.21-.27s0-.13-.05-.14-.07.09-.09.13-.13.23-.26.21-.17-.16-.2-.27a1.16,1.16,0,0,0-.06-.15.48.48,0,0,0-.09.13c-.06.11-.13.24-.26.22s-.17-.16-.2-.27,0-.14-.06-.15a.48.48,0,0,0-.09.13c-.06.11-.13.24-.26.22a.1.1,0,0,1-.08-.1.09.09,0,0,1,.1-.07.48.48,0,0,0,.09-.13c.05-.11.12-.24.26-.22s.17.16.2.27a.36.36,0,0,0,.06.15.48.48,0,0,0,.09-.13c.05-.1.12-.23.26-.22s.17.16.2.28a.37.37,0,0,0,.06.14s.07-.09.09-.13.12-.23.26-.21.17.15.2.27a.37.37,0,0,0,.06.14.09.09,0,0,1,.07.1A.09.09,0,0,1,16.91,52.42Z" transform="translate(-0.96 -2)"/><path class="cls-2" d="M9.08,85.88A.09.09,0,0,1,9,85.8a.08.08,0,0,1,.08-.09c.25,0,.4-.38.53-.73s.33-.84.7-.85h0c.37,0,.54.42.71.83s.31.72.55.71.4-.37.54-.73.32-.84.69-.84h0c.37,0,.54.42.71.82s.29.72.55.72.4-.38.53-.73.32-.84.69-.85.55.42.72.83.29.71.54.71h0a.08.08,0,0,1,.08.09.08.08,0,0,1-.08.09h0c-.36,0-.54-.42-.7-.83s-.3-.72-.55-.72h0c-.26,0-.4.38-.54.74s-.32.84-.69.84h0c-.37,0-.54-.42-.71-.82s-.3-.72-.55-.72-.4.37-.53.73-.32.84-.69.85-.55-.42-.72-.83-.3-.72-.55-.72h0c-.25,0-.4.38-.53.74s-.33.84-.7.84Z" transform="translate(-0.96 -2)"/><path class="cls-2" d="M58.76,15.61a.43.43,0,0,1-.27-.08c-.34-.22-.24-.73-.14-1.21s.18-.87-.07-1-.62.09-1,.34-.83.58-1.17.35-.24-.72-.14-1.21.18-.87-.07-1-.61.1-1,.35-.83.58-1.17.35-.24-.73-.14-1.21.18-.87-.06-1a.09.09,0,0,1,.09-.15c.35.23.24.73.14,1.22s-.18.87.07,1,.61-.1,1-.35.83-.58,1.17-.35.24.72.14,1.21-.18.87.06,1,.62-.1,1-.35.82-.57,1.17-.35.24.73.14,1.21-.18.88.06,1,.62-.1,1-.35.82-.57,1.17-.35a.09.09,0,0,1-.1.14c-.24-.16-.61.1-1,.35A1.9,1.9,0,0,1,58.76,15.61Z" transform="translate(-0.96 -2)"/><path class="cls-2" d="M55.3,90.88h0c-.14,0-.17-.19-.2-.32s0-.17-.06-.17-.09.09-.12.14-.16.24-.3.21-.17-.18-.2-.31,0-.17-.06-.18-.09.1-.12.15-.16.24-.3.21-.17-.18-.19-.31,0-.17-.06-.18a.08.08,0,0,1-.07-.1.09.09,0,0,1,.1-.07c.14,0,.17.19.2.32s0,.17.06.17.09-.09.12-.14.16-.24.3-.21.17.18.19.31a.54.54,0,0,0,.06.18s.09-.1.12-.15.16-.24.3-.21.18.18.2.31,0,.17.06.18.09-.1.12-.14.16-.25.3-.22a.08.08,0,0,1,.07.1.09.09,0,0,1-.1.07s-.09.09-.12.14S55.42,90.88,55.3,90.88Z" transform="translate(-0.96 -2)"/><path class="cls-2" d="M39.15,75.31h0c-.17,0-.22-.18-.27-.33s-.08-.22-.13-.22-.1.12-.14.2-.15.32-.31.31-.22-.19-.27-.34-.07-.21-.12-.22-.11.12-.15.21-.14.31-.31.3-.22-.18-.27-.34-.07-.21-.12-.21-.1.11-.14.2-.14.31-.31.3a.09.09,0,0,1-.09-.09.1.1,0,0,1,.1-.08s.1-.12.14-.2.14-.32.31-.31.22.19.27.34.08.22.12.22.11-.12.15-.21.14-.31.31-.3.22.18.27.34.07.21.12.21h0s.11-.11.15-.2.13-.32.3-.3.23.18.28.33.07.22.12.22a.09.09,0,1,1,0,.17Z" transform="translate(-0.96 -2)"/><path class="cls-2" d="M9.58,18.53H9.45c-.44-.11-.51-.67-.59-1.21s-.13-1-.45-1.06-.62.33-.9.73-.65.9-1.08.79-.51-.67-.59-1.2-.13-1-.45-1.06-.62.33-.9.72-.65.9-1.08.79-.51-.66-.58-1.2-.14-1-.46-1.06a.08.08,0,0,1-.06-.1.09.09,0,0,1,.1-.07c.44.11.51.67.59,1.21s.13,1,.45,1.06.62-.33.9-.73.65-.9,1.08-.79.51.66.58,1.2.14,1,.46,1.06.61-.33.9-.72S8,16,8.45,16.09s.51.66.58,1.2.14,1,.46,1.06.62-.33.9-.72.65-.9,1.08-.8a.09.09,0,0,1,.06.11.08.08,0,0,1-.1.06c-.32-.08-.62.33-.9.73S10,18.53,9.58,18.53Z" transform="translate(-0.96 -2)"/><path class="cls-2" d="M29.21,51.08h0a.08.08,0,0,1-.08-.09c0-.37-.49-.61-1-.85s-1.11-.52-1.07-1,.62-.69,1.19-.88,1.05-.34,1.08-.72-.49-.61-1-.84-1.11-.53-1.08-1,.63-.68,1.2-.87,1.05-.34,1.08-.72-.49-.61-1-.85-1.11-.52-1.08-1,.62-.68,1.2-.87,1.05-.34,1.07-.72a.1.1,0,0,1,.09-.08c.05,0,.09.05.08.09,0,.49-.62.69-1.19.87s-1.05.35-1.08.72.49.62,1,.85,1.11.52,1.08,1-.63.69-1.2.87-1.05.35-1.07.72.48.62,1,.85,1.11.53,1.08,1-.62.68-1.2.87-1.05.34-1.07.72.48.61,1,.85,1.11.52,1.08,1A.08.08,0,0,1,29.21,51.08Z" transform="translate(-0.96 -2)"/><path class="cls-2" d="M39,13.06h0c-.15,0-.21-.17-.26-.3s-.07-.19-.1-.19-.09.11-.12.18-.13.28-.28.28-.21-.17-.26-.3-.06-.19-.1-.19h0s-.09.11-.12.18-.12.28-.27.28h0c-.15,0-.21-.17-.26-.3s-.06-.19-.1-.19-.08.11-.12.18-.12.28-.27.28h0a.09.09,0,1,1,0-.17h0s.08-.11.12-.18.12-.28.28-.28.21.17.26.3.06.19.1.19.08-.11.12-.18.12-.29.28-.28.21.17.25.3.07.19.11.19h0s.08-.11.11-.18.14-.28.28-.28.22.17.26.3.07.19.11.19a.09.09,0,0,1,0,.17Z" transform="translate(-0.96 -2)"/><path class="cls-2" d="M2.86,83.78a.09.09,0,0,1-.09-.08c0-.18.17-.29.33-.38s.25-.14.24-.21S3.19,83,3.06,83s-.4-.1-.42-.28.16-.3.33-.39.25-.14.24-.21S3.05,82,2.92,82s-.39-.1-.42-.28.17-.29.33-.39.25-.14.24-.21-.15-.1-.29-.14-.39-.1-.41-.28a.08.08,0,0,1,.07-.1.09.09,0,0,1,.1.08c0,.06.16.1.29.14s.39.09.41.28-.16.29-.32.38-.25.15-.25.21.16.11.29.14.4.1.42.29-.16.29-.33.38-.25.14-.24.21.16.11.29.14.39.1.42.29-.17.29-.33.38-.25.14-.24.21a.1.1,0,0,1-.08.1Z" transform="translate(-0.96 -2)"/><path class="cls-2" d="M58.88,44.48h0a.08.08,0,0,1-.05-.11c.09-.24.39-.24.68-.25s.48,0,.53-.13-.13-.3-.3-.46-.44-.4-.34-.64.39-.24.68-.25.48,0,.53-.13-.13-.3-.3-.46-.44-.4-.35-.64.4-.24.69-.25.47,0,.52-.13-.12-.3-.3-.46-.43-.4-.34-.64a.09.09,0,0,1,.11-.05.08.08,0,0,1,0,.11c0,.13.13.3.3.46s.44.4.34.64-.39.24-.68.25-.48,0-.53.13.13.3.3.46.44.4.35.64-.4.24-.69.25-.47,0-.52.13.12.3.3.46.43.4.34.64-.39.24-.68.24-.48,0-.53.14A.08.08,0,0,1,58.88,44.48Z" transform="translate(-0.96 -2)"/><path class="cls-2" d="M7.9,37.48h0a.08.08,0,0,1,0-.11l.68-1.49-1,.38a.1.1,0,0,1-.09,0,.12.12,0,0,1,0-.1l.85-1.84a.09.09,0,0,1,.12,0,.1.1,0,0,1,0,.12L7.61,36l1-.38a.08.08,0,0,1,.09,0,.1.1,0,0,1,0,.09L8,37.43A.08.08,0,0,1,7.9,37.48Z" transform="translate(-0.96 -2)"/><path class="cls-2" d="M2.73,10.55h0a.09.09,0,0,1-.05-.11l.27-.73-.39.17a.08.08,0,0,1-.11-.1l.31-.84A.09.09,0,0,1,2.89,9l-.24.64L3,9.46a.1.1,0,0,1,.09,0,.08.08,0,0,1,0,.09l-.35.93A.08.08,0,0,1,2.73,10.55Z" transform="translate(-0.96 -2)"/><path class="cls-2" d="M74.18,83.16h0A.09.09,0,0,1,74.1,83L76,78.42l-2.9,1.2a.1.1,0,0,1-.09,0,.08.08,0,0,1,0-.1l1.82-4.37a.08.08,0,0,1,.11,0,.08.08,0,0,1,0,.11l-1.74,4.18,2.9-1.19a.07.07,0,0,1,.09,0,.08.08,0,0,1,0,.1l-2,4.81A.08.08,0,0,1,74.18,83.16Z" transform="translate(-0.96 -2)"/><path class="cls-2" d="M51.13,76.83a.1.1,0,0,1-.09-.08l-.24-4.06-1.86,2.1a.1.1,0,0,1-.1,0,.1.1,0,0,1-.06-.08l-.27-4.69a.08.08,0,0,1,.08-.09.08.08,0,0,1,.09.08l.26,4.48,1.87-2.1a.1.1,0,0,1,.09,0,.07.07,0,0,1,.06.07l.25,4.27s0,.08-.08.09Z" transform="translate(-0.96 -2)"/><path class="cls-2" d="M7.82,65.29h0a.09.09,0,0,1,0-.11l.18-.63-.35.19a.08.08,0,0,1-.1,0,.08.08,0,0,1,0-.09l.27-.91a.1.1,0,0,1,.11-.06.09.09,0,0,1,.06.11l-.21.71L8,64.3a.09.09,0,0,1,.1,0,.08.08,0,0,1,0,.09l-.25.83A.08.08,0,0,1,7.82,65.29Z" transform="translate(-0.96 -2)"/><path class="cls-2" d="M22.59,29.68a.1.1,0,0,1-.07,0l-2.27-3.07-.39,2.61s0,.07-.06.07a.08.08,0,0,1-.09,0l-2.64-3.56a.09.09,0,0,1,0-.12.09.09,0,0,1,.13,0L19.72,29l.39-2.61a.09.09,0,0,1,.06-.07.09.09,0,0,1,.09,0l2.4,3.24a.08.08,0,0,1,0,.12Z" transform="translate(-0.96 -2)"/><path class="cls-2" d="M57.34,73.91h0a.08.08,0,0,1-.05-.11l1.12-2.63-1.64.66a.1.1,0,0,1-.09,0,.12.12,0,0,1,0-.1l1.09-2.56a.1.1,0,0,1,.11,0,.11.11,0,0,1,.05.12l-1,2.37,1.63-.66a.08.08,0,0,1,.1,0,.07.07,0,0,1,0,.09l-1.19,2.82A.08.08,0,0,1,57.34,73.91Z" transform="translate(-0.96 -2)"/><path class="cls-2" d="M97,93.12h0a.09.09,0,0,1-.06-.11l.47-1.67-.91.51a.07.07,0,0,1-.09,0,.09.09,0,0,1,0-.09l.47-1.7s.06-.08.11-.06a.09.09,0,0,1,.06.1l-.42,1.5.91-.51a.09.09,0,0,1,.12.1l-.52,1.87A.08.08,0,0,1,97,93.12Z" transform="translate(-0.96 -2)"/><path class="cls-2" d="M96.25,72.51h0a.08.08,0,0,1,0-.11l.53-1.07-.66.22a.08.08,0,0,1-.09,0,.07.07,0,0,1,0-.09l.57-1.14a.09.09,0,0,1,.12,0,.08.08,0,0,1,0,.11l-.48,1,.66-.22a.08.08,0,0,1,.09,0,.07.07,0,0,1,0,.09l-.63,1.26S96.29,72.51,96.25,72.51Z" transform="translate(-0.96 -2)"/><path class="cls-2" d="M33.27,18.05a.07.07,0,0,1-.07,0l-1.14-2.1-.46,1.56a.09.09,0,0,1-.08.06s-.07,0-.08,0L30.08,15a.07.07,0,0,1,0-.11.1.1,0,0,1,.12,0l1.26,2.33L32,15.66A.09.09,0,0,1,32,15.6a.09.09,0,0,1,.08,0l1.24,2.28a.08.08,0,0,1,0,.12Z" transform="translate(-0.96 -2)"/><path class="cls-2" d="M4.09,68.45a.07.07,0,0,1-.07,0l-.62-1-.18.69s0,0-.07.06-.07,0-.08,0L2.41,67a.08.08,0,0,1,0-.11.08.08,0,0,1,.12,0l.55.93.18-.68s0-.06.07-.07a.1.1,0,0,1,.08,0l.73,1.23a.09.09,0,0,1,0,.12Z" transform="translate(-0.96 -2)"/><path class="cls-2" d="M69.59,33.46l-.06,0a.09.09,0,0,1,0-.12l1.41-1.88-1.58.22a.09.09,0,0,1-.09,0,.1.1,0,0,1,0-.09L71,29.28a.09.09,0,0,1,.12,0,.09.09,0,0,1,0,.12l-1.57,2.08,1.59-.22a.07.07,0,0,1,.08,0,.07.07,0,0,1,0,.09l-1.55,2A.08.08,0,0,1,69.59,33.46Z" transform="translate(-0.96 -2)"/><path class="cls-2" d="M20,74.1a.06.06,0,0,1-.06,0l-.68-.67v.54a.08.08,0,0,1,0,.08.1.1,0,0,1-.1,0l-.74-.74a.08.08,0,0,1,.12-.12l.6.59v-.54a.08.08,0,0,1,.05-.07.07.07,0,0,1,.09,0L20,74a.09.09,0,0,1,0,.12A.09.09,0,0,1,20,74.1Z" transform="translate(-0.96 -2)"/><path class="cls-2" d="M27.43,93.46a.08.08,0,0,1-.07,0l-.47-.72-.1.47a.1.1,0,0,1-.07.07s-.07,0-.08,0l-.53-.81a.08.08,0,0,1,0-.12.09.09,0,0,1,.12,0l.42.63.09-.47a.09.09,0,0,1,.07-.06.1.1,0,0,1,.09,0l.58.9a.07.07,0,0,1,0,.11Z" transform="translate(-0.96 -2)"/><path class="cls-2" d="M24.53,82.14a.07.07,0,0,1-.06,0L21.6,79.24v2.81a.08.08,0,0,1-.06.08.07.07,0,0,1-.09,0l-3.32-3.33a.09.09,0,0,1,0-.12.11.11,0,0,1,.13,0l3.17,3.18V79a.1.1,0,0,1,.05-.08.12.12,0,0,1,.1,0l3,3a.09.09,0,0,1,0,.12A.07.07,0,0,1,24.53,82.14Z" transform="translate(-0.96 -2)"/><path class="cls-2" d="M36,97.93a.11.11,0,0,1-.07,0,.09.09,0,0,1,0-.13l3-2.35-2.61-.32a.09.09,0,0,1-.08-.06.1.1,0,0,1,0-.09l3.49-2.73a.09.09,0,0,1,.12,0,.1.1,0,0,1,0,.13L36.56,95l2.62.32a.07.07,0,0,1,.07.06.08.08,0,0,1,0,.09l-3.17,2.48Z" transform="translate(-0.96 -2)"/><path class="cls-2" d="M5.69,97.18a.11.11,0,0,1-.07,0l-1.5-2-.21,1.52a.11.11,0,0,1-.06.07.09.09,0,0,1-.09,0l-1.48-2a.09.09,0,0,1,.14-.1l1.35,1.8L4,94.92a.1.1,0,0,1,.07-.07.1.1,0,0,1,.09,0l1.62,2.17a.08.08,0,0,1,0,.12Z" transform="translate(-0.96 -2)"/><path class="cls-2" d="M78.7,50.82a.09.09,0,0,1-.07,0,.08.08,0,0,1,0-.12l3.11-2.52-2.48-.26a.1.1,0,0,1-.08-.06.08.08,0,0,1,0-.09l3-2.41a.09.09,0,0,1,.11.13l-2.81,2.28L82,48a.09.09,0,0,1,.07.06.08.08,0,0,1,0,.09L78.75,50.8A.06.06,0,0,1,78.7,50.82Z" transform="translate(-0.96 -2)"/><path class="cls-2" d="M81.87,34a.08.08,0,0,1-.08-.08l-.07-2.35-1,1a.07.07,0,0,1-.09,0,.11.11,0,0,1-.06-.07l-.06-2.33a.09.09,0,0,1,.08-.09.09.09,0,0,1,.09.09l.06,2.11,1-1a.08.08,0,0,1,.09,0,.09.09,0,0,1,.06.08L82,33.87a.09.09,0,0,1-.09.09Z" transform="translate(-0.96 -2)"/><path class="cls-2" d="M12.57,97.49h0L11.47,97a.08.08,0,0,1,0-.11.08.08,0,0,1,.11,0l.87.38-.22-.57a.07.07,0,0,1,0-.09.08.08,0,0,1,.09,0l1.17.51a.08.08,0,0,1,0,.11s-.06.06-.11,0l-1-.43.23.57a.1.1,0,0,1,0,.09A.09.09,0,0,1,12.57,97.49Z" transform="translate(-0.96 -2)"/><path class="cls-2" d="M67.11,5.11h0A.09.09,0,0,1,67,5l.23-1.33-.73.52a.08.08,0,0,1-.09,0,.08.08,0,0,1,0-.09l.29-1.68a.08.08,0,0,1,.1-.07.08.08,0,0,1,.07.1l-.26,1.48.73-.52a.09.09,0,0,1,.1,0,.1.1,0,0,1,0,.09L67.19,5A.08.08,0,0,1,67.11,5.11Z" transform="translate(-0.96 -2)"/><path class="cls-2" d="M71.4,9.16h0l-1.12-.49a.09.09,0,0,1,0-.12.08.08,0,0,1,.11,0l.94.41L71,8.37a.08.08,0,0,1,0-.09.1.1,0,0,1,.09,0l1,.45a.08.08,0,0,1,0,.11.08.08,0,0,1-.11,0l-.84-.36.22.54a.1.1,0,0,1,0,.09A.07.07,0,0,1,71.4,9.16Z" transform="translate(-0.96 -2)"/><path class="cls-2" d="M78,21.82a.09.09,0,0,1-.09-.08.09.09,0,0,1,.09-.09l4.13-.25-1.93-1.71a.1.1,0,0,1,0-.1.08.08,0,0,1,.08-.05l4-.24a.09.09,0,1,1,0,.17l-3.74.23,1.93,1.71a.1.1,0,0,1,0,.1.08.08,0,0,1-.08,0L78,21.82Z" transform="translate(-0.96 -2)"/><path class="cls-2" d="M95.73,22.11h0a.09.09,0,0,1-.06-.11l1-3.53-2.2,1.24a.09.09,0,0,1-.1,0,.1.1,0,0,1,0-.1l1.14-4.11a.1.1,0,0,1,.11-.06.09.09,0,0,1,.06.11l-1.09,3.91,2.21-1.25a.09.09,0,0,1,.09,0,.08.08,0,0,1,0,.09l-1,3.74A.11.11,0,0,1,95.73,22.11Z" transform="translate(-0.96 -2)"/><path class="cls-2" d="M78.54,72.58h0l-.9-.47a.08.08,0,0,1,0-.11.08.08,0,0,1,.11,0l.72.37-.14-.42a.1.1,0,0,1,0-.1.1.1,0,0,1,.09,0l.82.43a.08.08,0,0,1,0,.11.1.1,0,0,1-.12,0L78.49,72l.13.42a.07.07,0,0,1,0,.09A.09.09,0,0,1,78.54,72.58Z" transform="translate(-0.96 -2)"/><path class="cls-2" d="M92.36,92.11h0a.08.08,0,0,1-.06-.1l1.16-4.76-2.62,1.6a.08.08,0,0,1-.1,0,.07.07,0,0,1,0-.08l1.09-4.51s.06-.08.11-.06a.08.08,0,0,1,.06.1l-1,4.3L93.53,87a.07.07,0,0,1,.09,0,.11.11,0,0,1,0,.09l-1.21,5A.1.1,0,0,1,92.36,92.11Z" transform="translate(-0.96 -2)"/><path class="cls-2" d="M53.8,43.79h0l-1.33-.07a.11.11,0,0,1-.08-.09c0-.05,0-.09.09-.08l1.12.05-.49-.54a.09.09,0,0,1,0-.1.07.07,0,0,1,.08,0l1.46.07a.08.08,0,0,1,.08.09.07.07,0,0,1-.09.08l-1.25-.06.49.54a.09.09,0,0,1,0,.1A.08.08,0,0,1,53.8,43.79Z" transform="translate(-0.96 -2)"/><path class="cls-2" d="M83.69,97.3a.07.07,0,0,1-.07,0l-.44-.69-.12.5a.08.08,0,0,1-.07.07.07.07,0,0,1-.08,0l-.61-1a.09.09,0,0,1,0-.12.08.08,0,0,1,.12,0l.49.78.12-.51a.07.07,0,0,1,.07-.06.09.09,0,0,1,.09,0l.54.87a.08.08,0,0,1,0,.12Z" transform="translate(-0.96 -2)"/><path class="cls-2" d="M18,33.41a.09.09,0,0,1-.09-.08l-.08-.87-.35.43a.12.12,0,0,1-.1,0,.11.11,0,0,1-.06-.07l-.1-1.19a.08.08,0,0,1,.08-.09.08.08,0,0,1,.09.08l.09,1,.35-.43a.1.1,0,0,1,.1,0,.1.1,0,0,1,.06.08l.09,1.07a.09.09,0,0,1-.08.1Z" transform="translate(-0.96 -2)"/><path class="cls-2" d="M8.67,26.73a.08.08,0,0,1-.08-.05.08.08,0,0,1,0-.11L11.84,25l-2.35-.79a.1.1,0,0,1-.06-.08A.1.1,0,0,1,9.48,24l3.74-1.86a.08.08,0,0,1,.12,0,.09.09,0,0,1,0,.12L9.74,24.08l2.35.79a.07.07,0,0,1,.06.07.08.08,0,0,1,0,.09L8.7,26.72Z" transform="translate(-0.96 -2)"/><path class="cls-2" d="M47.76,4.7a.1.1,0,0,1-.09-.08l-.08-1L47.21,4a.08.08,0,0,1-.09,0A.09.09,0,0,1,47.06,4L47,2.88a.08.08,0,0,1,.08-.09.07.07,0,0,1,.09.07l.08.91.37-.44a.1.1,0,0,1,.1,0,.1.1,0,0,1,.06.08l.1,1.22a.11.11,0,0,1-.08.1Z" transform="translate(-0.96 -2)"/><path class="cls-2" d="M51.1,25.33l-.06,0a.09.09,0,0,1,0-.13l.86-1-.78.06a.07.07,0,0,1-.08,0,.09.09,0,0,1,0-.1L52,23a.08.08,0,0,1,.12,0,.09.09,0,0,1,0,.12l-.77.91.77-.07a.11.11,0,0,1,.09.05.09.09,0,0,1,0,.09l-1,1.18A.09.09,0,0,1,51.1,25.33Z" transform="translate(-0.96 -2)"/><path class="cls-2" d="M28.85,57.66a.08.08,0,0,1-.08-.06l-.36-1.25L28,57.1a.08.08,0,0,1-.09,0,.07.07,0,0,1-.07-.06l-.46-1.6a.09.09,0,0,1,.06-.11.09.09,0,0,1,.1.06l.41,1.41.42-.76a.07.07,0,0,1,.08,0,.07.07,0,0,1,.07.06l.42,1.45a.08.08,0,0,1-.05.11Z" transform="translate(-0.96 -2)"/><path class="cls-2" d="M86,50.18a.11.11,0,0,1-.09-.06A.09.09,0,0,1,86,50l.89-.28-.46-.24a.09.09,0,0,1,0-.09.09.09,0,0,1,.06-.07l1-.31a.08.08,0,0,1,.1.06.09.09,0,0,1,0,.11l-.79.24.46.24a.11.11,0,0,1,0,.09.09.09,0,0,1-.06.07L86,50.17Z" transform="translate(-0.96 -2)"/><path class="cls-2" d="M50.91,58.94h0l-1.14-.74a.09.09,0,0,1,0-.12.08.08,0,0,1,.12,0l1,.62L50.64,58a.08.08,0,0,1,0-.09.09.09,0,0,1,.1,0l1,.67a.09.09,0,0,1,0,.12.08.08,0,0,1-.12,0l-.86-.55.14.65a.09.09,0,0,1,0,.09Z" transform="translate(-0.96 -2)"/><path class="cls-2" d="M96.28,11.91h0a.08.08,0,0,1,0-.11l.64-1.75-1.14.53a.09.09,0,0,1-.12-.11l.79-2.14a.08.08,0,0,1,.11-.05.08.08,0,0,1,0,.11l-.72,1.94L97,9.81a.09.09,0,0,1,.1,0,.08.08,0,0,1,0,.09l-.71,1.95A.1.1,0,0,1,96.28,11.91Z" transform="translate(-0.96 -2)"/><path class="cls-2" d="M2.37,51.92h0a.08.08,0,0,1-.06-.1l.2-.69-.39.22a.07.07,0,0,1-.09,0,.08.08,0,0,1,0-.09l.27-1a.09.09,0,0,1,.11-.06.09.09,0,0,1,.06.11l-.22.77.38-.22a.12.12,0,0,1,.1,0,.08.08,0,0,1,0,.09l-.25.88A.1.1,0,0,1,2.37,51.92Z" transform="translate(-0.96 -2)"/><path class="cls-2" d="M69.54,88.5h0a.09.09,0,0,1-.05-.11l1-3-2,1a.07.07,0,0,1-.09,0,.08.08,0,0,1,0-.09l1.2-3.51a.09.09,0,0,1,.11,0,.09.09,0,0,1,0,.11l-1.13,3.3,2-1a.07.07,0,0,1,.09,0,.08.08,0,0,1,0,.09l-1.09,3.19A.08.08,0,0,1,69.54,88.5Z" transform="translate(-0.96 -2)"/><path class="cls-2" d="M52.09,52.85h0a.09.09,0,0,1-.06-.11l.64-2.18-1.36.74a.07.07,0,0,1-.09,0,.08.08,0,0,1,0-.09l.76-2.62a.09.09,0,0,1,.11-.06.09.09,0,0,1,.06.11l-.71,2.42,1.36-.74a.07.07,0,0,1,.09,0,.1.1,0,0,1,0,.1l-.69,2.38A.09.09,0,0,1,52.09,52.85Z" transform="translate(-0.96 -2)"/><path class="cls-2" d="M31.58,64.85a.06.06,0,0,1-.06,0,.08.08,0,0,1,0-.12l3.15-3.19-3.11,0h0a.09.09,0,0,1-.08-.05.08.08,0,0,1,0-.09l3.62-3.68a.08.08,0,1,1,.12.12l-3.47,3.53,3.1,0h0a.08.08,0,0,1,.08,0,.07.07,0,0,1,0,.09l-3.29,3.34A.09.09,0,0,1,31.58,64.85Z" transform="translate(-0.96 -2)"/><path class="cls-2" d="M55.87,37.08a.09.09,0,0,1-.08-.08.08.08,0,0,1,.08-.09l.76,0-.36-.32a.08.08,0,0,1,0-.09s0-.06.08-.06l1.07-.07a.09.09,0,0,1,.09.08.09.09,0,0,1-.08.09l-.86.06.36.31a.08.08,0,0,1,0,.1.08.08,0,0,1-.07,0l-1,.07Z" transform="translate(-0.96 -2)"/><path class="cls-2" d="M13.85,6a.08.08,0,0,1-.08-.06l-.65-2-.65,1.28s0,0-.08,0a.08.08,0,0,1-.08-.06l-.79-2.41a.09.09,0,0,1,.06-.11.09.09,0,0,1,.11.05l.72,2.22.65-1.27a.09.09,0,0,1,.08,0,.1.1,0,0,1,.08.06l.71,2.2a.09.09,0,0,1,0,.11Z" transform="translate(-0.96 -2)"/><path class="cls-2" d="M47.93,92a.09.09,0,0,1-.08-.06.08.08,0,0,1,0-.11l.79-.34-.45-.18a.08.08,0,0,1-.05-.08.1.1,0,0,1,.05-.08l.89-.38a.08.08,0,0,1,.11,0,.09.09,0,0,1,0,.12l-.7.3.44.18a.09.09,0,0,1,.06.07.1.1,0,0,1-.06.09L48,92Z" transform="translate(-0.96 -2)"/><path class="cls-2" d="M64,31.06,64,31a.08.08,0,0,1,0-.12l2.82-3.65-2.86.36a.08.08,0,0,1-.09,0,.07.07,0,0,1,0-.09L66.51,24a.09.09,0,0,1,.14.11l-2.56,3.3L67,27.07a.12.12,0,0,1,.09.05.09.09,0,0,1,0,.09l-3,3.82A.09.09,0,0,1,64,31.06Z" transform="translate(-0.96 -2)"/><path class="cls-2" d="M32.39,3.8a.09.09,0,0,1-.08-.09.09.09,0,0,1,.08-.08l1.42,0L33.13,3a.1.1,0,0,1,0-.09.1.1,0,0,1,.08,0l1.79,0h0a.08.08,0,0,1,.08.09S35,3,35,3L33.4,3l.68.65a.1.1,0,0,1,0,.09.09.09,0,0,1-.08.06l-1.62,0Z" transform="translate(-0.96 -2)"/><path class="cls-2" d="M56.1,6.53h0l-4.8-1.71a.08.08,0,0,1-.05-.11.09.09,0,0,1,.11,0l4.6,1.63L54.61,3.53a.08.08,0,0,1,0-.09.08.08,0,0,1,.09,0L59.08,5a.09.09,0,0,1-.06.16L54.86,3.64l1.31,2.77a.07.07,0,0,1,0,.09A.09.09,0,0,1,56.1,6.53Z" transform="translate(-0.96 -2)"/><path class="cls-2" d="M5.11,44.93l-.05,0-4-3a.08.08,0,0,1,0-.12.09.09,0,0,1,.12,0L5,44.65l-.5-3.3a.1.1,0,0,1,0-.09.09.09,0,0,1,.1,0l4.45,3.28a.09.09,0,0,1,0,.12.08.08,0,0,1-.12,0L4.69,41.53l.5,3.3a.09.09,0,0,1,0,.09Z" transform="translate(-0.96 -2)"/><path class="cls-2" d="M66.19,98.12a.09.09,0,0,1,0-.17l2.63-.84-1.51-.78a.09.09,0,0,1,0-.08.09.09,0,0,1,.06-.08l2.57-.82a.09.09,0,0,1,.11.05.09.09,0,0,1-.06.11l-2.37.76,1.51.78a.09.09,0,0,1,0,.08.09.09,0,0,1-.06.08l-2.83.91Z" transform="translate(-0.96 -2)"/><path class="cls-2" d="M87.07,33.07A.08.08,0,0,1,87,33l-.61-2-.67,1.25a.09.09,0,0,1-.16,0l-.74-2.43a.08.08,0,0,1,.06-.1.09.09,0,0,1,.11.05L85.65,32l.67-1.26a.1.1,0,0,1,.09,0,.09.09,0,0,1,.07.06l.67,2.2a.09.09,0,0,1-.06.11Z" transform="translate(-0.96 -2)"/><path class="cls-2" d="M39.77,29.5a.08.08,0,0,1-.08-.06l-1-4.36-1.49,2.37a.1.1,0,0,1-.09,0,.12.12,0,0,1-.07-.07l-.94-4.14a.09.09,0,0,1,.17,0l.9,3.94,1.48-2.36a.09.09,0,0,1,.09,0,.07.07,0,0,1,.07.06l1,4.56a.09.09,0,0,1-.07.1Z" transform="translate(-0.96 -2)"/><path class="cls-2" d="M36.89,35.82h0a.1.1,0,0,1-.08-.1l.1-1.34-.6.52a.07.07,0,0,1-.09,0,.1.1,0,0,1-.05-.08l.11-1.41a.09.09,0,0,1,.09-.08.08.08,0,0,1,.08.09l-.09,1.2.6-.51a.09.09,0,0,1,.1,0s0,0,0,.08L37,35.74A.09.09,0,0,1,36.89,35.82Z" transform="translate(-0.96 -2)"/><path class="cls-2" d="M56.3,23.76l0,0a.08.08,0,0,1,0-.12l1.19-2L56.06,22A.1.1,0,0,1,56,22a.06.06,0,0,1,0-.09l1.18-2a.1.1,0,0,1,.12,0,.08.08,0,0,1,0,.12l-1.07,1.78,1.36-.34a.08.08,0,0,1,.09,0,.08.08,0,0,1,0,.1l-1.3,2.15A.1.1,0,0,1,56.3,23.76Z" transform="translate(-0.96 -2)"/><path class="cls-2" d="M30.92,23.07a.07.07,0,0,1-.06,0l-.79-.62a.09.09,0,0,1,0-.13.09.09,0,0,1,.12,0l.63.5,0-.44a.08.08,0,0,1,0-.09.12.12,0,0,1,.1,0l.72.57a.09.09,0,0,1-.11.14L31,22.54,31,23a.07.07,0,0,1,0,.08Z" transform="translate(-0.96 -2)"/><path class="cls-2" d="M8,12.07H8a.08.08,0,0,1,0-.11L9.25,8.36l-2.17,1a.09.09,0,0,1-.1,0,.1.1,0,0,1,0-.09L8.23,5.8a.09.09,0,0,1,.11,0,.1.1,0,0,1,.06.11L7.19,9.11l2.17-1a.09.09,0,0,1,.1,0,.1.1,0,0,1,0,.09L8.08,12A.09.09,0,0,1,8,12.07Z" transform="translate(-0.96 -2)"/><path class="cls-2" d="M63.84,60.76h0a.09.09,0,0,1-.08-.09l.18-4-2,1.86a.08.08,0,0,1-.09,0,.11.11,0,0,1,0-.09L62,53.85a.09.09,0,0,1,.09-.08.08.08,0,0,1,.08.09l-.2,4.41,2-1.86a.09.09,0,0,1,.1,0,.06.06,0,0,1,0,.08l-.19,4.2A.09.09,0,0,1,63.84,60.76Z" transform="translate(-0.96 -2)"/><path class="cls-2" d="M33.06,73.44a.09.09,0,0,1-.09-.08l-.42-3.86-1.68,2.09a.08.08,0,0,1-.09,0,.09.09,0,0,1-.06-.07l-.49-4.48a.08.08,0,0,1,.08-.09.07.07,0,0,1,.09.07l.47,4.27,1.68-2.09a.08.08,0,0,1,.09,0,.09.09,0,0,1,.06.07l.44,4.07a.08.08,0,0,1-.07.1Z" transform="translate(-0.96 -2)"/><path class="cls-2" d="M93.33,40a.1.1,0,0,1-.08-.06l-.86-2.6L91.55,39a.11.11,0,0,1-.09,0,.09.09,0,0,1-.07-.06l-1-3.08a.09.09,0,0,1,0-.11.09.09,0,0,1,.11.06l1,2.88.84-1.68a.07.07,0,0,1,.08,0,.08.08,0,0,1,.08,0l.92,2.8a.08.08,0,0,1,0,.11Z" transform="translate(-0.96 -2)"/><path class="cls-2" d="M30.89,10.67a.1.1,0,0,1-.09-.07.08.08,0,0,1,.07-.1l2-.43-1.14-.74a.07.07,0,0,1,0-.08.07.07,0,0,1,.06-.07l2.39-.53a.09.09,0,0,1,0,.17L32,9.3,33.1,10a.11.11,0,0,1,0,.09.08.08,0,0,1-.07.07l-2.16.47Z" transform="translate(-0.96 -2)"/><path class="cls-2" d="M67.56,62.06a.08.08,0,0,1-.08-.08.08.08,0,0,1,.07-.09l5.13-.65-2.57-2a.1.1,0,0,1,0-.09.09.09,0,0,1,.08-.06L75,58.49a.07.07,0,0,1,.09.07.09.09,0,0,1-.07.1l-4.64.58,2.57,2a.14.14,0,0,1,0,.09.09.09,0,0,1-.08.06l-5.32.68Z" transform="translate(-0.96 -2)"/><path class="cls-2" d="M55.1,79.59a.09.09,0,0,1-.06,0,.08.08,0,0,1,0-.12l.5-.54-.4,0a.09.09,0,0,1-.08,0,.09.09,0,0,1,0-.1l.59-.63a.08.08,0,0,1,.12,0,.07.07,0,0,1,0,.12l-.44.48.4,0a.08.08,0,0,1,.08,0,.09.09,0,0,1,0,.1l-.65.69A.07.07,0,0,1,55.1,79.59Z" transform="translate(-0.96 -2)"/><path class="cls-2" d="M60.52,89.81h0a.09.09,0,0,1-.06-.11l.31-1.15-.68.39a.09.09,0,0,1-.1,0,.1.1,0,0,1,0-.09l.4-1.49a.08.08,0,0,1,.1-.07.09.09,0,0,1,.06.11l-.34,1.29.68-.39a.07.07,0,0,1,.09,0,.11.11,0,0,1,0,.09l-.36,1.36A.08.08,0,0,1,60.52,89.81Z" transform="translate(-0.96 -2)"/><path class="cls-2" d="M3.92,75.46a.1.1,0,0,1-.08,0l-.55-1.5-.4.86a.09.09,0,0,1-.08,0,.08.08,0,0,1-.08-.06l-.56-1.54a.08.08,0,0,1,.05-.11.09.09,0,0,1,.11,0l.49,1.35.4-.87a.13.13,0,0,1,.09,0,.11.11,0,0,1,.07.06L4,75.35a.1.1,0,0,1-.06.11Z" transform="translate(-0.96 -2)"/><path class="cls-2" d="M43.36,9.72h0l-1.05-.23a.09.09,0,0,1-.07-.11.09.09,0,0,1,.11-.06l.85.19-.26-.41a.09.09,0,0,1,0-.1A.08.08,0,0,1,43,9l1,.21a.09.09,0,0,1,.06.1.08.08,0,0,1-.1.07l-.76-.17.27.41a.12.12,0,0,1,0,.1A.08.08,0,0,1,43.36,9.72Z" transform="translate(-0.96 -2)"/><path class="cls-2" d="M82.11,56.41h0l-4.36-2a.08.08,0,0,1,0-.11.08.08,0,0,1,.11,0L82,56.16l-1.1-3s0-.06,0-.09a.07.07,0,0,1,.09,0l4.8,2.2a.08.08,0,0,1,0,.11.08.08,0,0,1-.11,0l-4.61-2.12,1.11,3a.1.1,0,0,1,0,.1Z" transform="translate(-0.96 -2)"/><path class="cls-2" d="M75.49,90.17h0s-.08-.06-.06-.11l.75-2.7-1.67.94a.09.09,0,0,1-.1,0,.1.1,0,0,1,0-.09L75.26,85a.09.09,0,0,1,.11-.06.09.09,0,0,1,.06.1l-.84,3,1.67-.94a.12.12,0,0,1,.1,0,.1.1,0,0,1,0,.09l-.82,2.9A.08.08,0,0,1,75.49,90.17Z" transform="translate(-0.96 -2)"/><path class="cls-2" d="M38.19,88a.08.08,0,0,1-.08,0,.09.09,0,0,1,0-.12l1.92-.78-1.16-.49a.09.09,0,0,1-.05-.08.08.08,0,0,1,.05-.08l1.93-.78a.08.08,0,0,1,.11,0,.08.08,0,0,1-.05.11l-1.73.71,1.16.49a.09.09,0,0,1,0,.08.08.08,0,0,1,0,.08L38.22,88Z" transform="translate(-0.96 -2)"/><path class="cls-2" d="M65.76,68a.07.07,0,0,1-.06,0l-2.85-3-.09,2.61a.07.07,0,0,1-.06.07.07.07,0,0,1-.09,0l-2.72-2.91a.09.09,0,0,1,.13-.11l2.57,2.75.09-2.6a.08.08,0,0,1,.06-.08.1.1,0,0,1,.09,0l3,3.2a.08.08,0,0,1,0,.12A.09.09,0,0,1,65.76,68Z" transform="translate(-0.96 -2)"/><path class="cls-2" d="M80.78,42.82h0a.09.09,0,0,1-.08-.09l.16-4-2,1.89a.12.12,0,0,1-.1,0,.11.11,0,0,1,0-.09l.19-4.65a.09.09,0,1,1,.17,0l-.18,4.44,2-1.89a.07.07,0,0,1,.09,0,.09.09,0,0,1,0,.08l-.17,4.23A.09.09,0,0,1,80.78,42.82Z" transform="translate(-0.96 -2)"/><path class="cls-2" d="M83.42,26.23h0l-1.88-.47a.09.09,0,0,1,0-.17l1.67.42-.53-.89a.07.07,0,0,1,0-.09.08.08,0,0,1,.09,0l1.71.42a.1.1,0,0,1,.06.11.09.09,0,0,1-.11.06L83,25.21l.53.89a.08.08,0,0,1-.07.13Z" transform="translate(-0.96 -2)"/><path class="cls-2" d="M91.72,75.6h0a.08.08,0,0,1-.06-.1l.21-.68-.39.21a.12.12,0,0,1-.1,0,.1.1,0,0,1,0-.09l.29-1a.09.09,0,0,1,.11-.06.09.09,0,0,1,.05.11l-.23.77.39-.21a.07.07,0,0,1,.09,0,.08.08,0,0,1,0,.09l-.27.88A.09.09,0,0,1,91.72,75.6Z" transform="translate(-0.96 -2)"/></g></svg>